M48
; DRILL file {KiCad 7.0.10} date Sat Jan 20 01:49:08 2024
; FORMAT={-:-/ absolute / metric / decimal}
; #@! TF.CreationDate,2024-01-20T01:49:08+09:00
; #@! TF.GenerationSoftware,Kicad,Pcbnew,7.0.10
; #@! TF.FileFunction,Plated,1,2,PTH
FMAT,2
METRIC
; #@! TA.AperFunction,Plated,PTH,ViaDrill
T1C0.300
; #@! TA.AperFunction,Plated,PTH,ViaDrill
T2C0.350
; #@! TA.AperFunction,Plated,PTH,ComponentDrill
T3C0.600
; #@! TA.AperFunction,Plated,PTH,ComponentDrill
T4C1.000
; #@! TA.AperFunction,Plated,PTH,ComponentDrill
T5C2.800
%
G90
G05
T1
X70.69Y-67.06
X70.83Y-64.02
X71.6Y-109.32
X71.67Y-89.63
X71.72Y-68.76
X71.74Y-102.01
X71.75Y-92.25
X71.75Y-99.18
X71.77Y-96.62
X71.77Y-104.31
X71.8Y-115.86
X71.82Y-74.04
X71.83Y-71.56
X71.83Y-106.83
X72.22Y-87.1
X72.71Y-67.76
X73.08Y-87.15
X73.1Y-110.55
X73.11Y-85.391
X73.17Y-86.35
X73.26Y-107.77
X73.37Y-92.59
X73.49Y-93.28
X73.69Y-115.67
X73.93Y-73.71
X73.932Y-95.276
X74.01Y-86.34
X74.08Y-94.04
X74.115Y-68.974
X74.26Y-66.93
X74.59Y-105.96
X74.66Y-96.81
X74.7Y-98.53
X74.75Y-110.2
X74.755Y-86.04
X74.76Y-108.37
X74.88Y-107.01
X75.068Y-66.408
X75.18Y-96.86
X75.31Y-77.06
X75.38Y-84.74
X75.521Y-111.791
X75.6Y-92.72
X75.68Y-94.92
X75.69Y-82.41
X75.71Y-99.37
X75.76Y-100.96
X75.79Y-97.94
X75.89Y-71.435
X75.89Y-115.78
X75.945Y-83.945
X75.98Y-70.18
X76.06Y-106.16
X76.145Y-108.515
X76.24Y-110.84
X76.38Y-97.91
X76.6Y-96.12
X76.76Y-88.4
X76.768Y-67.551
X77.1Y-111.81
X77.18Y-97.24
X77.276Y-66.967
X77.39Y-84.82
X77.46Y-110.74
X77.52Y-68.57
X77.53Y-72.05
X77.54Y-96.65
X77.55Y-80.55
X77.55Y-107.71
X77.56Y-76.181
X77.61Y-87.3
X77.67Y-105.99
X77.76Y-89.02
X77.772Y-67.551
X77.96Y-90.11
X78.07Y-83.481
X78.28Y-66.967
X78.31Y-98.1
X78.316Y-89.195
X78.4Y-106.84
X78.46Y-108.69
X78.79Y-115.75
X78.88Y-89.76
X78.89Y-109.56
X78.92Y-100.09
X79.0Y-70.19
X79.058Y-71.968
X79.06Y-77.91
X79.19Y-102.46
X79.26Y-76.0
X79.27Y-90.5
X79.31Y-81.58
X79.31Y-82.85
X79.31Y-84.12
X79.35Y-85.39
X79.42Y-112.69
X79.44Y-92.24
X79.65Y-99.76
X79.85Y-90.49
X79.89Y-95.71
X79.94Y-108.35
X79.968Y-66.408
X80.01Y-96.41
X80.13Y-97.09
X80.16Y-101.22
X80.21Y-94.57
X80.21Y-93.28
X80.32Y-106.32
X80.335Y-99.335
X80.44Y-86.7
X80.44Y-90.46
X80.69Y-111.35
X80.745Y-112.865
X80.75Y-66.32
X80.82Y-68.923
X81.0Y-82.26
X81.07Y-107.07
X81.14Y-70.14
X81.29Y-104.41
X81.31Y-94.31
X81.35Y-87.01
X81.42Y-94.99
X81.42Y-95.56
X81.51Y-115.21
X81.61Y-66.86
X81.77Y-77.08
X81.8Y-91.93
X81.92Y-80.78
X81.99Y-112.92
X82.18Y-98.07
X82.37Y-87.4
X82.43Y-68.123
X82.46Y-79.39
X82.6Y-89.24
X82.72Y-111.05
X82.75Y-99.39
X83.2Y-114.19
X83.2Y-117.08
X83.21Y-103.64
X83.21Y-106.63
X83.42Y-109.45
X83.48Y-72.17
X83.5Y-91.91
X83.51Y-70.05
X83.64Y-90.53
X83.8Y-100.42
X84.22Y-63.97
X84.33Y-67.04
T2
X80.958Y-71.968
T4
X70.01Y-68.76
X70.01Y-71.3
X70.01Y-73.84
X70.01Y-76.38
X70.01Y-78.92
X70.01Y-81.46
X70.01Y-84.0
X70.01Y-86.54
X70.01Y-89.08
X70.01Y-91.62
X70.01Y-94.16
X70.01Y-96.7
X70.01Y-99.24
X70.01Y-101.78
X70.01Y-104.32
X70.01Y-106.86
X70.01Y-109.4
X70.01Y-111.94
X70.01Y-114.48
X70.01Y-117.02
X74.83Y-114.53
X77.37Y-114.53
X79.91Y-114.53
X85.01Y-68.76
X85.01Y-71.3
X85.01Y-73.84
X85.01Y-76.38
X85.01Y-78.92
X85.01Y-81.46
X85.01Y-84.0
X85.01Y-86.54
X85.01Y-89.08
X85.01Y-91.62
X85.01Y-94.16
X85.01Y-96.7
X85.01Y-99.24
X85.01Y-101.78
X85.01Y-104.32
X85.01Y-106.86
X85.01Y-109.4
X85.01Y-111.94
X85.01Y-114.48
X85.01Y-117.02
T5
X77.538Y-93.649
T3
G00X71.76Y-61.292
M15
G01X71.76Y-62.492
M16
G05
G00X71.76Y-65.492
M15
G01X71.76Y-66.293
M16
G05
G00X83.26Y-61.292
M15
G01X83.26Y-62.492
M16
G05
G00X83.26Y-65.492
M15
G01X83.26Y-66.293
M16
G05
M30
