G04 #@! TF.GenerationSoftware,KiCad,Pcbnew,7.0.10*
G04 #@! TF.CreationDate,2024-01-20T01:49:08+09:00*
G04 #@! TF.ProjectId,slim,736c696d-2e6b-4696-9361-645f70636258,rev?*
G04 #@! TF.SameCoordinates,Original*
G04 #@! TF.FileFunction,Soldermask,Top*
G04 #@! TF.FilePolarity,Negative*
%FSLAX46Y46*%
G04 Gerber Fmt 4.6, Leading zero omitted, Abs format (unit mm)*
G04 Created by KiCad (PCBNEW 7.0.10) date 2024-01-20 01:49:08*
%MOMM*%
%LPD*%
G01*
G04 APERTURE LIST*
G04 Aperture macros list*
%AMRoundRect*
0 Rectangle with rounded corners*
0 $1 Rounding radius*
0 $2 $3 $4 $5 $6 $7 $8 $9 X,Y pos of 4 corners*
0 Add a 4 corners polygon primitive as box body*
4,1,4,$2,$3,$4,$5,$6,$7,$8,$9,$2,$3,0*
0 Add four circle primitives for the rounded corners*
1,1,$1+$1,$2,$3*
1,1,$1+$1,$4,$5*
1,1,$1+$1,$6,$7*
1,1,$1+$1,$8,$9*
0 Add four rect primitives between the rounded corners*
20,1,$1+$1,$2,$3,$4,$5,0*
20,1,$1+$1,$4,$5,$6,$7,0*
20,1,$1+$1,$6,$7,$8,$9,0*
20,1,$1+$1,$8,$9,$2,$3,0*%
%AMRotRect*
0 Rectangle, with rotation*
0 The origin of the aperture is its center*
0 $1 length*
0 $2 width*
0 $3 Rotation angle, in degrees counterclockwise*
0 Add horizontal line*
21,1,$1,$2,0,0,$3*%
G04 Aperture macros list end*
%ADD10RoundRect,0.200000X-0.275000X0.200000X-0.275000X-0.200000X0.275000X-0.200000X0.275000X0.200000X0*%
%ADD11O,1.700000X1.700000*%
%ADD12R,1.700000X1.700000*%
%ADD13RoundRect,0.225000X0.250000X-0.225000X0.250000X0.225000X-0.250000X0.225000X-0.250000X-0.225000X0*%
%ADD14RoundRect,0.225000X0.225000X0.250000X-0.225000X0.250000X-0.225000X-0.250000X0.225000X-0.250000X0*%
%ADD15RoundRect,0.225000X-0.250000X0.225000X-0.250000X-0.225000X0.250000X-0.225000X0.250000X0.225000X0*%
%ADD16C,1.524000*%
%ADD17R,1.524000X1.524000*%
%ADD18RoundRect,0.200000X-0.335876X-0.053033X-0.053033X-0.335876X0.335876X0.053033X0.053033X0.335876X0*%
%ADD19RoundRect,0.200000X-0.200000X-0.275000X0.200000X-0.275000X0.200000X0.275000X-0.200000X0.275000X0*%
%ADD20RoundRect,0.225000X-0.335876X-0.017678X-0.017678X-0.335876X0.335876X0.017678X0.017678X0.335876X0*%
%ADD21R,2.000000X1.500000*%
%ADD22R,2.000000X3.800000*%
%ADD23RoundRect,0.162500X0.162500X-0.612500X0.162500X0.612500X-0.162500X0.612500X-0.162500X-0.612500X0*%
%ADD24RotRect,3.200000X3.200000X315.000000*%
%ADD25RoundRect,0.100000X0.000000X0.000000X0.000000X0.000000X0.000000X0.000000X0.000000X0.000000X0*%
%ADD26RoundRect,0.100000X-0.282843X-0.282843X-0.282843X-0.282843X0.282843X0.282843X0.282843X0.282843X0*%
%ADD27RoundRect,0.100000X0.000000X0.000000X0.000000X0.000000X0.000000X0.000000X0.000000X0.000000X0*%
%ADD28RoundRect,0.100000X-0.282843X0.282843X-0.282843X0.282843X0.282843X-0.282843X0.282843X-0.282843X0*%
%ADD29RoundRect,0.100000X0.000000X0.000000X0.000000X0.000000X0.000000X0.000000X0.000000X0.000000X0*%
%ADD30RoundRect,0.100000X0.282843X0.282843X0.282843X0.282843X-0.282843X-0.282843X-0.282843X-0.282843X0*%
%ADD31RoundRect,0.100000X0.000000X0.000000X0.000000X0.000000X0.000000X0.000000X0.000000X0.000000X0*%
%ADD32RoundRect,0.100000X0.282843X-0.282843X0.282843X-0.282843X-0.282843X0.282843X-0.282843X0.282843X0*%
%ADD33RoundRect,0.218750X-0.256250X0.218750X-0.256250X-0.218750X0.256250X-0.218750X0.256250X0.218750X0*%
%ADD34RoundRect,0.200000X0.275000X-0.200000X0.275000X0.200000X-0.275000X0.200000X-0.275000X-0.200000X0*%
%ADD35RoundRect,0.225000X0.335876X0.017678X0.017678X0.335876X-0.335876X-0.017678X-0.017678X-0.335876X0*%
%ADD36RoundRect,0.200000X0.200000X0.275000X-0.200000X0.275000X-0.200000X-0.275000X0.200000X-0.275000X0*%
%ADD37R,0.575000X1.650000*%
%ADD38R,0.300000X1.650000*%
%ADD39O,1.000000X2.200000*%
%ADD40O,1.000000X1.800000*%
%ADD41RoundRect,0.162500X-0.162500X0.612500X-0.162500X-0.612500X0.162500X-0.612500X0.162500X0.612500X0*%
%ADD42RoundRect,0.225000X-0.017678X0.335876X-0.335876X0.017678X0.017678X-0.335876X0.335876X-0.017678X0*%
%ADD43RoundRect,0.225000X0.017678X-0.335876X0.335876X-0.017678X-0.017678X0.335876X-0.335876X0.017678X0*%
%ADD44RoundRect,0.150000X0.150000X-0.587500X0.150000X0.587500X-0.150000X0.587500X-0.150000X-0.587500X0*%
%ADD45RoundRect,0.225000X-0.225000X-0.250000X0.225000X-0.250000X0.225000X0.250000X-0.225000X0.250000X0*%
%ADD46RotRect,1.900000X1.650000X315.000000*%
%ADD47RoundRect,0.218750X0.256250X-0.218750X0.256250X0.218750X-0.256250X0.218750X-0.256250X-0.218750X0*%
%ADD48RoundRect,0.150000X-1.150000X-0.150000X1.150000X-0.150000X1.150000X0.150000X-1.150000X0.150000X0*%
G04 APERTURE END LIST*
D10*
X73288000Y-114485600D03*
X73288000Y-112835600D03*
X83335000Y-86435000D03*
X83335000Y-84785000D03*
D11*
X85010000Y-117020000D03*
X85010000Y-114480000D03*
X85010000Y-111940000D03*
X85010000Y-109400000D03*
X85010000Y-106860000D03*
X85010000Y-104320000D03*
X85010000Y-101780000D03*
X85010000Y-99240000D03*
X85010000Y-96700000D03*
X85010000Y-94160000D03*
X85010000Y-91620000D03*
X85010000Y-89080000D03*
X85010000Y-86540000D03*
X85010000Y-84000000D03*
X85010000Y-81460000D03*
X85010000Y-78920000D03*
X85010000Y-76380000D03*
X85010000Y-73840000D03*
X85010000Y-71300000D03*
D12*
X85010000Y-68760000D03*
D13*
X75900000Y-71440000D03*
X75900000Y-72990000D03*
D14*
X79235000Y-73140000D03*
X80785000Y-73140000D03*
X81920000Y-80780000D03*
X83470000Y-80780000D03*
D15*
X75710000Y-100930000D03*
X75710000Y-99380000D03*
D16*
X79910000Y-114530000D03*
D17*
X77370000Y-114530000D03*
D16*
X74830000Y-114530000D03*
D10*
X82430000Y-72833800D03*
X82430000Y-71183800D03*
D18*
X80060000Y-102770000D03*
X78893274Y-101603274D03*
D19*
X80895600Y-68923000D03*
X79245600Y-68923000D03*
D14*
X72030000Y-111616400D03*
X73580000Y-111616400D03*
D20*
X83636016Y-95056016D03*
X82540000Y-93960000D03*
D15*
X74690000Y-100145000D03*
X74690000Y-98595000D03*
D21*
X81770000Y-74780000D03*
D22*
X75470000Y-77080000D03*
D21*
X81770000Y-77080000D03*
X81770000Y-79380000D03*
D23*
X73820000Y-75690000D03*
X73820000Y-80340000D03*
X71670000Y-75690000D03*
X71670000Y-80340000D03*
D10*
X81370000Y-101110000D03*
X81370000Y-99460000D03*
X81860000Y-85735000D03*
X81860000Y-84085000D03*
D24*
X77538070Y-93649340D03*
D25*
X78033045Y-89477410D03*
D26*
X78315887Y-89194567D03*
D25*
X78598730Y-88911725D03*
X78315887Y-89760253D03*
D26*
X78598730Y-89477410D03*
D25*
X78881573Y-89194567D03*
X78598730Y-90043095D03*
D26*
X78881573Y-89760253D03*
D25*
X79164416Y-89477410D03*
X78881573Y-90325938D03*
D26*
X79164416Y-90043095D03*
D25*
X79447258Y-89760253D03*
X79164416Y-90608781D03*
D26*
X79447258Y-90325938D03*
D25*
X79730101Y-90043095D03*
X79447258Y-90891624D03*
D26*
X79730101Y-90608781D03*
D25*
X80012944Y-90325938D03*
X79730101Y-91174466D03*
D26*
X80012944Y-90891624D03*
D25*
X80295786Y-90608781D03*
X80012944Y-91457309D03*
D26*
X80295786Y-91174466D03*
D25*
X80578629Y-90891624D03*
X80295786Y-91740152D03*
D26*
X80578629Y-91457309D03*
D25*
X80861472Y-91174466D03*
X80578629Y-92022994D03*
D26*
X80861472Y-91740152D03*
D25*
X81144315Y-91457309D03*
X80861472Y-92305837D03*
D26*
X81144315Y-92022994D03*
D25*
X81427157Y-91740152D03*
X81144315Y-92588680D03*
D26*
X81427157Y-92305837D03*
D25*
X81710000Y-92022994D03*
X81427157Y-92871523D03*
D26*
X81710000Y-92588680D03*
D25*
X81992843Y-92305837D03*
X81710000Y-93154365D03*
D26*
X81992843Y-92871523D03*
D25*
X82275685Y-92588680D03*
D27*
X82275685Y-94710000D03*
D28*
X81992843Y-94427157D03*
D27*
X81710000Y-94144315D03*
X81992843Y-94992843D03*
D28*
X81710000Y-94710000D03*
D27*
X81427157Y-94427157D03*
X81710000Y-95275686D03*
D28*
X81427157Y-94992843D03*
D27*
X81144315Y-94710000D03*
X81427157Y-95558528D03*
D28*
X81144315Y-95275686D03*
D27*
X80861472Y-94992843D03*
X81144315Y-95841371D03*
D28*
X80861472Y-95558528D03*
D27*
X80578629Y-95275686D03*
X80861472Y-96124214D03*
D28*
X80578629Y-95841371D03*
D27*
X80295786Y-95558528D03*
X80578629Y-96407056D03*
D28*
X80295786Y-96124214D03*
D27*
X80012944Y-95841371D03*
X80295786Y-96689899D03*
D28*
X80012944Y-96407056D03*
D27*
X79730101Y-96124214D03*
X80012944Y-96972742D03*
D28*
X79730101Y-96689899D03*
D27*
X79447258Y-96407056D03*
X79730101Y-97255585D03*
D28*
X79447258Y-96972742D03*
D27*
X79164416Y-96689899D03*
X79447258Y-97538427D03*
D28*
X79164416Y-97255585D03*
D27*
X78881573Y-96972742D03*
X79164416Y-97821270D03*
D28*
X78881573Y-97538427D03*
D27*
X78598730Y-97255585D03*
X78881573Y-98104113D03*
D28*
X78598730Y-97821270D03*
D27*
X78315887Y-97538427D03*
X78598730Y-98386955D03*
D28*
X78315887Y-98104113D03*
D27*
X78033045Y-97821270D03*
D29*
X76477410Y-98386955D03*
D30*
X76760253Y-98104113D03*
D29*
X77043095Y-97821270D03*
X76194567Y-98104113D03*
D30*
X76477410Y-97821270D03*
D29*
X76760253Y-97538427D03*
X75911724Y-97821270D03*
D30*
X76194567Y-97538427D03*
D29*
X76477410Y-97255585D03*
X75628882Y-97538427D03*
D30*
X75911724Y-97255585D03*
D29*
X76194567Y-96972742D03*
X75346039Y-97255585D03*
D30*
X75628882Y-96972742D03*
D29*
X75911724Y-96689899D03*
X75063196Y-96972742D03*
D30*
X75346039Y-96689899D03*
D29*
X75628882Y-96407056D03*
X74780354Y-96689899D03*
D30*
X75063196Y-96407056D03*
D29*
X75346039Y-96124214D03*
X74497511Y-96407056D03*
D30*
X74780354Y-96124214D03*
D29*
X75063196Y-95841371D03*
X74214668Y-96124214D03*
D30*
X74497511Y-95841371D03*
D29*
X74780354Y-95558528D03*
X73931825Y-95841371D03*
D30*
X74214668Y-95558528D03*
D29*
X74497511Y-95275686D03*
X73648983Y-95558528D03*
D30*
X73931825Y-95275686D03*
D29*
X74214668Y-94992843D03*
X73366140Y-95275686D03*
D30*
X73648983Y-94992843D03*
D29*
X73931825Y-94710000D03*
X73083297Y-94992843D03*
D30*
X73366140Y-94710000D03*
D29*
X73648983Y-94427157D03*
X72800455Y-94710000D03*
D30*
X73083297Y-94427157D03*
D29*
X73366140Y-94144315D03*
D31*
X73366140Y-93154365D03*
D32*
X73083297Y-92871523D03*
D31*
X72800455Y-92588680D03*
X73648983Y-92871523D03*
D32*
X73366140Y-92588680D03*
D31*
X73083297Y-92305837D03*
X73931825Y-92588680D03*
D32*
X73648983Y-92305837D03*
D31*
X73366140Y-92022994D03*
X74214668Y-92305837D03*
D32*
X73931825Y-92022994D03*
D31*
X73648983Y-91740152D03*
X74497511Y-92022994D03*
D32*
X74214668Y-91740152D03*
D31*
X73931825Y-91457309D03*
X74780354Y-91740152D03*
D32*
X74497511Y-91457309D03*
D31*
X74214668Y-91174466D03*
X75063196Y-91457309D03*
D32*
X74780354Y-91174466D03*
D31*
X74497511Y-90891624D03*
X75346039Y-91174466D03*
D32*
X75063196Y-90891624D03*
D31*
X74780354Y-90608781D03*
X75628882Y-90891624D03*
D32*
X75346039Y-90608781D03*
D31*
X75063196Y-90325938D03*
X75911724Y-90608781D03*
D32*
X75628882Y-90325938D03*
D31*
X75346039Y-90043095D03*
X76194567Y-90325938D03*
D32*
X75911724Y-90043095D03*
D31*
X75628882Y-89760253D03*
X76477410Y-90043095D03*
D32*
X76194567Y-89760253D03*
D31*
X75911724Y-89477410D03*
X76760253Y-89760253D03*
D32*
X76477410Y-89477410D03*
D31*
X76194567Y-89194567D03*
X77043095Y-89477410D03*
D32*
X76760253Y-89194567D03*
D31*
X76477410Y-88911725D03*
D33*
X82430000Y-69697500D03*
X82430000Y-68122500D03*
D34*
X72170400Y-112835600D03*
X72170400Y-114485600D03*
D35*
X71653984Y-89623984D03*
X72750000Y-90720000D03*
D19*
X76375000Y-79820000D03*
X74725000Y-79820000D03*
D13*
X82585000Y-87685000D03*
X82585000Y-89235000D03*
D36*
X74102600Y-68973800D03*
X75752600Y-68973800D03*
D37*
X74285000Y-67002500D03*
X75060000Y-67002500D03*
D38*
X75760000Y-67002500D03*
X76260000Y-67002500D03*
X76760000Y-67002500D03*
X77260000Y-67002500D03*
X77760000Y-67002500D03*
X78260000Y-67002500D03*
X78760000Y-67002500D03*
X79260000Y-67002500D03*
D37*
X79960000Y-67002500D03*
X80735000Y-67002500D03*
D39*
X71760000Y-61892500D03*
D40*
X71760000Y-65892500D03*
D39*
X83260000Y-61892500D03*
D40*
X83260000Y-65892500D03*
D41*
X80745000Y-112865000D03*
X80745000Y-108215000D03*
X82895000Y-112865000D03*
X82895000Y-108215000D03*
D42*
X78797253Y-106443270D03*
X79893269Y-105347254D03*
D14*
X72720000Y-71630000D03*
X74270000Y-71630000D03*
D11*
X70010000Y-117020000D03*
X70010000Y-114480000D03*
X70010000Y-111940000D03*
X70010000Y-109400000D03*
X70010000Y-106860000D03*
X70010000Y-104320000D03*
X70010000Y-101780000D03*
X70010000Y-99240000D03*
X70010000Y-96700000D03*
X70010000Y-94160000D03*
X70010000Y-91620000D03*
X70010000Y-89080000D03*
X70010000Y-86540000D03*
X70010000Y-84000000D03*
X70010000Y-81460000D03*
X70010000Y-78920000D03*
X70010000Y-76380000D03*
X70010000Y-73840000D03*
X70010000Y-71300000D03*
D12*
X70010000Y-68760000D03*
D43*
X83646016Y-90513984D03*
X82550000Y-91610000D03*
D44*
X80007600Y-70092500D03*
X80957600Y-71967500D03*
X79057600Y-71967500D03*
D45*
X82185000Y-98070000D03*
X80635000Y-98070000D03*
D46*
X76995546Y-102025266D03*
X78904734Y-103934454D03*
X77384454Y-105454734D03*
X75475266Y-103545546D03*
D19*
X74320000Y-72730000D03*
X72670000Y-72730000D03*
D14*
X78885000Y-86690000D03*
X80435000Y-86690000D03*
D43*
X77778008Y-87271992D03*
X76681992Y-88368008D03*
D20*
X75870114Y-106119980D03*
X74774098Y-105023964D03*
D14*
X78885000Y-87810000D03*
X80435000Y-87810000D03*
D47*
X81370000Y-102462500D03*
X81370000Y-104037500D03*
D45*
X77085000Y-111810000D03*
X75535000Y-111810000D03*
D48*
X79310000Y-81581118D03*
X79310000Y-82851118D03*
X79310000Y-84121118D03*
X79310000Y-85391118D03*
X73110000Y-85391118D03*
X73110000Y-84121118D03*
X73110000Y-82851118D03*
X73110000Y-81581118D03*
M02*
