G04 #@! TF.GenerationSoftware,KiCad,Pcbnew,7.0.10*
G04 #@! TF.CreationDate,2024-01-20T01:49:08+09:00*
G04 #@! TF.ProjectId,slim,736c696d-2e6b-4696-9361-645f70636258,rev?*
G04 #@! TF.SameCoordinates,Original*
G04 #@! TF.FileFunction,Soldermask,Bot*
G04 #@! TF.FilePolarity,Negative*
%FSLAX46Y46*%
G04 Gerber Fmt 4.6, Leading zero omitted, Abs format (unit mm)*
G04 Created by KiCad (PCBNEW 7.0.10) date 2024-01-20 01:49:08*
%MOMM*%
%LPD*%
G01*
G04 APERTURE LIST*
G04 Aperture macros list*
%AMRotRect*
0 Rectangle, with rotation*
0 The origin of the aperture is its center*
0 $1 length*
0 $2 width*
0 $3 Rotation angle, in degrees counterclockwise*
0 Add horizontal line*
21,1,$1,$2,0,0,$3*%
G04 Aperture macros list end*
%ADD10O,1.700000X1.700000*%
%ADD11R,1.700000X1.700000*%
%ADD12C,1.524000*%
%ADD13R,1.524000X1.524000*%
%ADD14RotRect,3.200000X3.200000X315.000000*%
%ADD15O,1.000000X2.200000*%
%ADD16O,1.000000X1.800000*%
G04 APERTURE END LIST*
D10*
X85010000Y-117020000D03*
X85010000Y-114480000D03*
X85010000Y-111940000D03*
X85010000Y-109400000D03*
X85010000Y-106860000D03*
X85010000Y-104320000D03*
X85010000Y-101780000D03*
X85010000Y-99240000D03*
X85010000Y-96700000D03*
X85010000Y-94160000D03*
X85010000Y-91620000D03*
X85010000Y-89080000D03*
X85010000Y-86540000D03*
X85010000Y-84000000D03*
X85010000Y-81460000D03*
X85010000Y-78920000D03*
X85010000Y-76380000D03*
X85010000Y-73840000D03*
X85010000Y-71300000D03*
D11*
X85010000Y-68760000D03*
D12*
X79910000Y-114530000D03*
D13*
X77370000Y-114530000D03*
D12*
X74830000Y-114530000D03*
D14*
X77538070Y-93649340D03*
D15*
X71760000Y-61892500D03*
D16*
X71760000Y-65892500D03*
D15*
X83260000Y-61892500D03*
D16*
X83260000Y-65892500D03*
D10*
X70010000Y-117020000D03*
X70010000Y-114480000D03*
X70010000Y-111940000D03*
X70010000Y-109400000D03*
X70010000Y-106860000D03*
X70010000Y-104320000D03*
X70010000Y-101780000D03*
X70010000Y-99240000D03*
X70010000Y-96700000D03*
X70010000Y-94160000D03*
X70010000Y-91620000D03*
X70010000Y-89080000D03*
X70010000Y-86540000D03*
X70010000Y-84000000D03*
X70010000Y-81460000D03*
X70010000Y-78920000D03*
X70010000Y-76380000D03*
X70010000Y-73840000D03*
X70010000Y-71300000D03*
D11*
X70010000Y-68760000D03*
M02*
