M48
INCH
T1C0.0118
T2C0.0138
T3C0.0236
T4C0.0394
T5C0.1102
%
G90
G05
T1
X2.7831Y-2.6402
X2.7886Y-2.5205
X2.8189Y-4.3039
X2.8217Y-3.5287
X2.8236Y-2.7071
X2.8244Y-4.0161
X2.8248Y-3.6319
X2.8248Y-3.9047
X2.8256Y-3.8039
X2.8256Y-4.1067
X2.8268Y-4.5614
X2.8276Y-2.915
X2.828Y-2.8173
X2.828Y-4.2059
X2.8433Y-3.4291
X2.8626Y-2.6677
X2.8772Y-3.4311
X2.878Y-4.3524
X2.8783Y-3.3619
X2.8807Y-3.3996
X2.8843Y-4.2429
X2.8886Y-3.6453
X2.8933Y-3.6724
X2.9012Y-4.5539
X2.9106Y-2.902
X2.9107Y-3.751
X2.9138Y-3.3992
X2.9165Y-3.7024
X2.9179Y-2.7155
X2.9236Y-2.635
X2.9366Y-4.1717
X2.9394Y-3.8114
X2.9409Y-3.8791
X2.9429Y-4.3386
X2.9431Y-3.3874
X2.9433Y-4.2665
X2.948Y-4.213
X2.9554Y-2.6145
X2.9598Y-3.8134
X2.965Y-3.0339
X2.9677Y-3.3362
X2.9733Y-4.4012
X2.9764Y-3.6504
X2.9795Y-3.737
X2.9799Y-3.2445
X2.9807Y-3.9122
X2.9827Y-3.9748
X2.9839Y-3.8559
X2.9878Y-2.8124
X2.9878Y-4.5583
X2.99Y-3.3049
X2.9913Y-2.763
X2.9945Y-4.1795
X2.9978Y-4.2722
X3.0016Y-4.3638
X3.0071Y-3.8547
X3.0157Y-3.7843
X3.022Y-3.4803
X3.0224Y-2.6595
X3.0354Y-4.402
X3.0386Y-3.8283
X3.0424Y-2.6365
X3.0469Y-3.3394
X3.0496Y-4.3598
X3.052Y-2.6996
X3.0524Y-2.8366
X3.0528Y-3.8051
X3.0531Y-3.1713
X3.0531Y-4.2406
X3.0535Y-2.9993
X3.0555Y-3.437
X3.0579Y-4.1728
X3.0614Y-3.5047
X3.0619Y-2.6595
X3.0693Y-3.5476
X3.0736Y-3.2867
X3.0819Y-2.6365
X3.0831Y-3.8622
X3.0833Y-3.5116
X3.0866Y-4.2063
X3.089Y-4.2791
X3.102Y-4.5571
X3.1055Y-3.5339
X3.1059Y-4.3134
X3.1071Y-3.9406
X3.1102Y-2.7634
X3.1125Y-2.8334
X3.1126Y-3.0673
X3.1177Y-4.0339
X3.1205Y-2.9921
X3.1209Y-3.563
X3.1224Y-3.2118
X3.1224Y-3.2618
X3.1224Y-3.3118
X3.124Y-3.3618
X3.1268Y-4.4366
X3.1276Y-3.6315
X3.1358Y-3.9276
X3.1437Y-3.5626
X3.1453Y-3.7681
X3.1472Y-4.2657
X3.1484Y-2.6145
X3.15Y-3.7957
X3.1547Y-3.8224
X3.1559Y-3.985
X3.1579Y-3.7232
X3.1579Y-3.6724
X3.1622Y-4.1858
X3.1628Y-3.9108
X3.1669Y-3.4134
X3.1669Y-3.5614
X3.1768Y-4.3839
X3.1789Y-4.4435
X3.1791Y-2.611
X3.1819Y-2.7135
X3.189Y-3.2386
X3.1917Y-4.2154
X3.1945Y-2.7614
X3.2004Y-4.1106
X3.2012Y-3.713
X3.2028Y-3.4256
X3.2055Y-3.7398
X3.2055Y-3.7622
X3.2091Y-4.5358
X3.213Y-2.6323
X3.2193Y-3.0346
X3.2205Y-3.6193
X3.2252Y-3.1803
X3.228Y-4.4457
X3.2354Y-3.861
X3.2429Y-3.4409
X3.2453Y-2.682
X3.2465Y-3.1256
X3.252Y-3.5134
X3.2567Y-4.372
X3.2579Y-3.913
X3.2756Y-4.4957
X3.2756Y-4.6094
X3.276Y-4.0803
X3.276Y-4.198
X3.2843Y-4.3091
X3.2866Y-2.8413
X3.2874Y-3.6185
X3.2878Y-2.7579
X3.2929Y-3.5642
X3.2992Y-3.9535
X3.3157Y-2.5185
X3.3201Y-2.6394
T2
X3.1873Y-2.8334
T4
X2.7563Y-2.7071
X2.7563Y-2.8071
X2.7563Y-2.9071
X2.7563Y-3.0071
X2.7563Y-3.1071
X2.7563Y-3.2071
X2.7563Y-3.3071
X2.7563Y-3.4071
X2.7563Y-3.5071
X2.7563Y-3.6071
X2.7563Y-3.7071
X2.7563Y-3.8071
X2.7563Y-3.9071
X2.7563Y-4.0071
X2.7563Y-4.1071
X2.7563Y-4.2071
X2.7563Y-4.3071
X2.7563Y-4.4071
X2.7563Y-4.5071
X2.7563Y-4.6071
X2.9461Y-4.5091
X3.0461Y-4.5091
X3.1461Y-4.5091
X3.3469Y-2.7071
X3.3469Y-2.8071
X3.3469Y-2.9071
X3.3469Y-3.0071
X3.3469Y-3.1071
X3.3469Y-3.2071
X3.3469Y-3.3071
X3.3469Y-3.4071
X3.3469Y-3.5071
X3.3469Y-3.6071
X3.3469Y-3.7071
X3.3469Y-3.8071
X3.3469Y-3.9071
X3.3469Y-4.0071
X3.3469Y-4.1071
X3.3469Y-4.2071
X3.3469Y-4.3071
X3.3469Y-4.4071
X3.3469Y-4.5071
X3.3469Y-4.6071
T5
X3.0527Y-3.687
T3
G00X2.8252Y-2.4131
M15
G01X2.8252Y-2.4603
M16
G05
G00X2.8252Y-2.5784
M15
G01X2.8252Y-2.6099
M16
G05
G00X3.278Y-2.4131
M15
G01X3.278Y-2.4603
M16
G05
G00X3.278Y-2.5784
M15
G01X3.278Y-2.6099
M16
G05
M30
