%TF.GenerationSoftware,KiCad,Pcbnew,7.0.10*%
%TF.CreationDate,2024-01-20T01:54:22+09:00*%
%TF.ProjectId,slim,736c696d-2e6b-4696-9361-645f70636258,rev?*%
%TF.SameCoordinates,Original*%
%TF.FileFunction,Legend,Top*%
%TF.FilePolarity,Positive*%
%FSLAX46Y46*%
G04 Gerber Fmt 4.6, Leading zero omitted, Abs format (unit mm)*
G04 Created by KiCad (PCBNEW 7.0.10) date 2024-01-20 01:54:22*
%MOMM*%
%LPD*%
G01*
G04 APERTURE LIST*
G04 Aperture macros list*
%AMRoundRect*
0 Rectangle with rounded corners*
0 $1 Rounding radius*
0 $2 $3 $4 $5 $6 $7 $8 $9 X,Y pos of 4 corners*
0 Add a 4 corners polygon primitive as box body*
4,1,4,$2,$3,$4,$5,$6,$7,$8,$9,$2,$3,0*
0 Add four circle primitives for the rounded corners*
1,1,$1+$1,$2,$3*
1,1,$1+$1,$4,$5*
1,1,$1+$1,$6,$7*
1,1,$1+$1,$8,$9*
0 Add four rect primitives between the rounded corners*
20,1,$1+$1,$2,$3,$4,$5,0*
20,1,$1+$1,$4,$5,$6,$7,0*
20,1,$1+$1,$6,$7,$8,$9,0*
20,1,$1+$1,$8,$9,$2,$3,0*%
%AMRotRect*
0 Rectangle, with rotation*
0 The origin of the aperture is its center*
0 $1 length*
0 $2 width*
0 $3 Rotation angle, in degrees counterclockwise*
0 Add horizontal line*
21,1,$1,$2,0,0,$3*%
G04 Aperture macros list end*
%ADD10C,0.150000*%
%ADD11C,0.120000*%
%ADD12C,0.200000*%
%ADD13RoundRect,0.200000X-0.275000X0.200000X-0.275000X-0.200000X0.275000X-0.200000X0.275000X0.200000X0*%
%ADD14O,1.700000X1.700000*%
%ADD15R,1.700000X1.700000*%
%ADD16RoundRect,0.225000X0.250000X-0.225000X0.250000X0.225000X-0.250000X0.225000X-0.250000X-0.225000X0*%
%ADD17RoundRect,0.225000X0.225000X0.250000X-0.225000X0.250000X-0.225000X-0.250000X0.225000X-0.250000X0*%
%ADD18RoundRect,0.225000X-0.250000X0.225000X-0.250000X-0.225000X0.250000X-0.225000X0.250000X0.225000X0*%
%ADD19C,1.524000*%
%ADD20R,1.524000X1.524000*%
%ADD21RoundRect,0.200000X-0.335876X-0.053033X-0.053033X-0.335876X0.335876X0.053033X0.053033X0.335876X0*%
%ADD22RoundRect,0.200000X-0.200000X-0.275000X0.200000X-0.275000X0.200000X0.275000X-0.200000X0.275000X0*%
%ADD23RoundRect,0.225000X-0.335876X-0.017678X-0.017678X-0.335876X0.335876X0.017678X0.017678X0.335876X0*%
%ADD24R,2.000000X1.500000*%
%ADD25R,2.000000X3.800000*%
%ADD26RoundRect,0.162500X0.162500X-0.612500X0.162500X0.612500X-0.162500X0.612500X-0.162500X-0.612500X0*%
%ADD27RotRect,3.200000X3.200000X315.000000*%
%ADD28RoundRect,0.100000X0.000000X0.000000X0.000000X0.000000X0.000000X0.000000X0.000000X0.000000X0*%
%ADD29RoundRect,0.100000X-0.282843X-0.282843X-0.282843X-0.282843X0.282843X0.282843X0.282843X0.282843X0*%
%ADD30RoundRect,0.100000X0.000000X0.000000X0.000000X0.000000X0.000000X0.000000X0.000000X0.000000X0*%
%ADD31RoundRect,0.100000X-0.282843X0.282843X-0.282843X0.282843X0.282843X-0.282843X0.282843X-0.282843X0*%
%ADD32RoundRect,0.100000X0.000000X0.000000X0.000000X0.000000X0.000000X0.000000X0.000000X0.000000X0*%
%ADD33RoundRect,0.100000X0.282843X0.282843X0.282843X0.282843X-0.282843X-0.282843X-0.282843X-0.282843X0*%
%ADD34RoundRect,0.100000X0.000000X0.000000X0.000000X0.000000X0.000000X0.000000X0.000000X0.000000X0*%
%ADD35RoundRect,0.100000X0.282843X-0.282843X0.282843X-0.282843X-0.282843X0.282843X-0.282843X0.282843X0*%
%ADD36RoundRect,0.218750X-0.256250X0.218750X-0.256250X-0.218750X0.256250X-0.218750X0.256250X0.218750X0*%
%ADD37RoundRect,0.200000X0.275000X-0.200000X0.275000X0.200000X-0.275000X0.200000X-0.275000X-0.200000X0*%
%ADD38RoundRect,0.225000X0.335876X0.017678X0.017678X0.335876X-0.335876X-0.017678X-0.017678X-0.335876X0*%
%ADD39RoundRect,0.200000X0.200000X0.275000X-0.200000X0.275000X-0.200000X-0.275000X0.200000X-0.275000X0*%
%ADD40R,0.575000X1.650000*%
%ADD41R,0.300000X1.650000*%
%ADD42O,1.000000X2.200000*%
%ADD43O,1.000000X1.800000*%
%ADD44RoundRect,0.162500X-0.162500X0.612500X-0.162500X-0.612500X0.162500X-0.612500X0.162500X0.612500X0*%
%ADD45RoundRect,0.225000X-0.017678X0.335876X-0.335876X0.017678X0.017678X-0.335876X0.335876X-0.017678X0*%
%ADD46RoundRect,0.225000X0.017678X-0.335876X0.335876X-0.017678X-0.017678X0.335876X-0.335876X0.017678X0*%
%ADD47RoundRect,0.150000X0.150000X-0.587500X0.150000X0.587500X-0.150000X0.587500X-0.150000X-0.587500X0*%
%ADD48RoundRect,0.225000X-0.225000X-0.250000X0.225000X-0.250000X0.225000X0.250000X-0.225000X0.250000X0*%
%ADD49RotRect,1.900000X1.650000X315.000000*%
%ADD50RoundRect,0.218750X0.256250X-0.218750X0.256250X0.218750X-0.256250X0.218750X-0.256250X-0.218750X0*%
%ADD51RoundRect,0.150000X-1.150000X-0.150000X1.150000X-0.150000X1.150000X0.150000X-1.150000X0.150000X0*%
G04 APERTURE END LIST*
D10*
X73692019Y-115897866D02*
X73215828Y-116231199D01*
X73692019Y-116469294D02*
X72692019Y-116469294D01*
X72692019Y-116469294D02*
X72692019Y-116088342D01*
X72692019Y-116088342D02*
X72739638Y-115993104D01*
X72739638Y-115993104D02*
X72787257Y-115945485D01*
X72787257Y-115945485D02*
X72882495Y-115897866D01*
X72882495Y-115897866D02*
X73025352Y-115897866D01*
X73025352Y-115897866D02*
X73120590Y-115945485D01*
X73120590Y-115945485D02*
X73168209Y-115993104D01*
X73168209Y-115993104D02*
X73215828Y-116088342D01*
X73215828Y-116088342D02*
X73215828Y-116469294D01*
X73120590Y-115326437D02*
X73072971Y-115421675D01*
X73072971Y-115421675D02*
X73025352Y-115469294D01*
X73025352Y-115469294D02*
X72930114Y-115516913D01*
X72930114Y-115516913D02*
X72882495Y-115516913D01*
X72882495Y-115516913D02*
X72787257Y-115469294D01*
X72787257Y-115469294D02*
X72739638Y-115421675D01*
X72739638Y-115421675D02*
X72692019Y-115326437D01*
X72692019Y-115326437D02*
X72692019Y-115135961D01*
X72692019Y-115135961D02*
X72739638Y-115040723D01*
X72739638Y-115040723D02*
X72787257Y-114993104D01*
X72787257Y-114993104D02*
X72882495Y-114945485D01*
X72882495Y-114945485D02*
X72930114Y-114945485D01*
X72930114Y-114945485D02*
X73025352Y-114993104D01*
X73025352Y-114993104D02*
X73072971Y-115040723D01*
X73072971Y-115040723D02*
X73120590Y-115135961D01*
X73120590Y-115135961D02*
X73120590Y-115326437D01*
X73120590Y-115326437D02*
X73168209Y-115421675D01*
X73168209Y-115421675D02*
X73215828Y-115469294D01*
X73215828Y-115469294D02*
X73311066Y-115516913D01*
X73311066Y-115516913D02*
X73501542Y-115516913D01*
X73501542Y-115516913D02*
X73596780Y-115469294D01*
X73596780Y-115469294D02*
X73644400Y-115421675D01*
X73644400Y-115421675D02*
X73692019Y-115326437D01*
X73692019Y-115326437D02*
X73692019Y-115135961D01*
X73692019Y-115135961D02*
X73644400Y-115040723D01*
X73644400Y-115040723D02*
X73596780Y-114993104D01*
X73596780Y-114993104D02*
X73501542Y-114945485D01*
X73501542Y-114945485D02*
X73311066Y-114945485D01*
X73311066Y-114945485D02*
X73215828Y-114993104D01*
X73215828Y-114993104D02*
X73168209Y-115040723D01*
X73168209Y-115040723D02*
X73120590Y-115135961D01*
X83794819Y-83582857D02*
X83318628Y-83916190D01*
X83794819Y-84154285D02*
X82794819Y-84154285D01*
X82794819Y-84154285D02*
X82794819Y-83773333D01*
X82794819Y-83773333D02*
X82842438Y-83678095D01*
X82842438Y-83678095D02*
X82890057Y-83630476D01*
X82890057Y-83630476D02*
X82985295Y-83582857D01*
X82985295Y-83582857D02*
X83128152Y-83582857D01*
X83128152Y-83582857D02*
X83223390Y-83630476D01*
X83223390Y-83630476D02*
X83271009Y-83678095D01*
X83271009Y-83678095D02*
X83318628Y-83773333D01*
X83318628Y-83773333D02*
X83318628Y-84154285D01*
X83794819Y-82630476D02*
X83794819Y-83201904D01*
X83794819Y-82916190D02*
X82794819Y-82916190D01*
X82794819Y-82916190D02*
X82937676Y-83011428D01*
X82937676Y-83011428D02*
X83032914Y-83106666D01*
X83032914Y-83106666D02*
X83080533Y-83201904D01*
X82794819Y-82011428D02*
X82794819Y-81916190D01*
X82794819Y-81916190D02*
X82842438Y-81820952D01*
X82842438Y-81820952D02*
X82890057Y-81773333D01*
X82890057Y-81773333D02*
X82985295Y-81725714D01*
X82985295Y-81725714D02*
X83175771Y-81678095D01*
X83175771Y-81678095D02*
X83413866Y-81678095D01*
X83413866Y-81678095D02*
X83604342Y-81725714D01*
X83604342Y-81725714D02*
X83699580Y-81773333D01*
X83699580Y-81773333D02*
X83747200Y-81820952D01*
X83747200Y-81820952D02*
X83794819Y-81916190D01*
X83794819Y-81916190D02*
X83794819Y-82011428D01*
X83794819Y-82011428D02*
X83747200Y-82106666D01*
X83747200Y-82106666D02*
X83699580Y-82154285D01*
X83699580Y-82154285D02*
X83604342Y-82201904D01*
X83604342Y-82201904D02*
X83413866Y-82249523D01*
X83413866Y-82249523D02*
X83175771Y-82249523D01*
X83175771Y-82249523D02*
X82985295Y-82201904D01*
X82985295Y-82201904D02*
X82890057Y-82154285D01*
X82890057Y-82154285D02*
X82842438Y-82106666D01*
X82842438Y-82106666D02*
X82794819Y-82011428D01*
X75347142Y-70689580D02*
X75299523Y-70737200D01*
X75299523Y-70737200D02*
X75156666Y-70784819D01*
X75156666Y-70784819D02*
X75061428Y-70784819D01*
X75061428Y-70784819D02*
X74918571Y-70737200D01*
X74918571Y-70737200D02*
X74823333Y-70641961D01*
X74823333Y-70641961D02*
X74775714Y-70546723D01*
X74775714Y-70546723D02*
X74728095Y-70356247D01*
X74728095Y-70356247D02*
X74728095Y-70213390D01*
X74728095Y-70213390D02*
X74775714Y-70022914D01*
X74775714Y-70022914D02*
X74823333Y-69927676D01*
X74823333Y-69927676D02*
X74918571Y-69832438D01*
X74918571Y-69832438D02*
X75061428Y-69784819D01*
X75061428Y-69784819D02*
X75156666Y-69784819D01*
X75156666Y-69784819D02*
X75299523Y-69832438D01*
X75299523Y-69832438D02*
X75347142Y-69880057D01*
X76299523Y-70784819D02*
X75728095Y-70784819D01*
X76013809Y-70784819D02*
X76013809Y-69784819D01*
X76013809Y-69784819D02*
X75918571Y-69927676D01*
X75918571Y-69927676D02*
X75823333Y-70022914D01*
X75823333Y-70022914D02*
X75728095Y-70070533D01*
X76632857Y-69784819D02*
X77299523Y-69784819D01*
X77299523Y-69784819D02*
X76870952Y-70784819D01*
X79843333Y-74929580D02*
X79795714Y-74977200D01*
X79795714Y-74977200D02*
X79652857Y-75024819D01*
X79652857Y-75024819D02*
X79557619Y-75024819D01*
X79557619Y-75024819D02*
X79414762Y-74977200D01*
X79414762Y-74977200D02*
X79319524Y-74881961D01*
X79319524Y-74881961D02*
X79271905Y-74786723D01*
X79271905Y-74786723D02*
X79224286Y-74596247D01*
X79224286Y-74596247D02*
X79224286Y-74453390D01*
X79224286Y-74453390D02*
X79271905Y-74262914D01*
X79271905Y-74262914D02*
X79319524Y-74167676D01*
X79319524Y-74167676D02*
X79414762Y-74072438D01*
X79414762Y-74072438D02*
X79557619Y-74024819D01*
X79557619Y-74024819D02*
X79652857Y-74024819D01*
X79652857Y-74024819D02*
X79795714Y-74072438D01*
X79795714Y-74072438D02*
X79843333Y-74120057D01*
X80748095Y-74024819D02*
X80271905Y-74024819D01*
X80271905Y-74024819D02*
X80224286Y-74501009D01*
X80224286Y-74501009D02*
X80271905Y-74453390D01*
X80271905Y-74453390D02*
X80367143Y-74405771D01*
X80367143Y-74405771D02*
X80605238Y-74405771D01*
X80605238Y-74405771D02*
X80700476Y-74453390D01*
X80700476Y-74453390D02*
X80748095Y-74501009D01*
X80748095Y-74501009D02*
X80795714Y-74596247D01*
X80795714Y-74596247D02*
X80795714Y-74834342D01*
X80795714Y-74834342D02*
X80748095Y-74929580D01*
X80748095Y-74929580D02*
X80700476Y-74977200D01*
X80700476Y-74977200D02*
X80605238Y-75024819D01*
X80605238Y-75024819D02*
X80367143Y-75024819D01*
X80367143Y-75024819D02*
X80271905Y-74977200D01*
X80271905Y-74977200D02*
X80224286Y-74929580D01*
X83839580Y-79452857D02*
X83887200Y-79500476D01*
X83887200Y-79500476D02*
X83934819Y-79643333D01*
X83934819Y-79643333D02*
X83934819Y-79738571D01*
X83934819Y-79738571D02*
X83887200Y-79881428D01*
X83887200Y-79881428D02*
X83791961Y-79976666D01*
X83791961Y-79976666D02*
X83696723Y-80024285D01*
X83696723Y-80024285D02*
X83506247Y-80071904D01*
X83506247Y-80071904D02*
X83363390Y-80071904D01*
X83363390Y-80071904D02*
X83172914Y-80024285D01*
X83172914Y-80024285D02*
X83077676Y-79976666D01*
X83077676Y-79976666D02*
X82982438Y-79881428D01*
X82982438Y-79881428D02*
X82934819Y-79738571D01*
X82934819Y-79738571D02*
X82934819Y-79643333D01*
X82934819Y-79643333D02*
X82982438Y-79500476D01*
X82982438Y-79500476D02*
X83030057Y-79452857D01*
X83934819Y-78500476D02*
X83934819Y-79071904D01*
X83934819Y-78786190D02*
X82934819Y-78786190D01*
X82934819Y-78786190D02*
X83077676Y-78881428D01*
X83077676Y-78881428D02*
X83172914Y-78976666D01*
X83172914Y-78976666D02*
X83220533Y-79071904D01*
X83363390Y-77929047D02*
X83315771Y-78024285D01*
X83315771Y-78024285D02*
X83268152Y-78071904D01*
X83268152Y-78071904D02*
X83172914Y-78119523D01*
X83172914Y-78119523D02*
X83125295Y-78119523D01*
X83125295Y-78119523D02*
X83030057Y-78071904D01*
X83030057Y-78071904D02*
X82982438Y-78024285D01*
X82982438Y-78024285D02*
X82934819Y-77929047D01*
X82934819Y-77929047D02*
X82934819Y-77738571D01*
X82934819Y-77738571D02*
X82982438Y-77643333D01*
X82982438Y-77643333D02*
X83030057Y-77595714D01*
X83030057Y-77595714D02*
X83125295Y-77548095D01*
X83125295Y-77548095D02*
X83172914Y-77548095D01*
X83172914Y-77548095D02*
X83268152Y-77595714D01*
X83268152Y-77595714D02*
X83315771Y-77643333D01*
X83315771Y-77643333D02*
X83363390Y-77738571D01*
X83363390Y-77738571D02*
X83363390Y-77929047D01*
X83363390Y-77929047D02*
X83411009Y-78024285D01*
X83411009Y-78024285D02*
X83458628Y-78071904D01*
X83458628Y-78071904D02*
X83553866Y-78119523D01*
X83553866Y-78119523D02*
X83744342Y-78119523D01*
X83744342Y-78119523D02*
X83839580Y-78071904D01*
X83839580Y-78071904D02*
X83887200Y-78024285D01*
X83887200Y-78024285D02*
X83934819Y-77929047D01*
X83934819Y-77929047D02*
X83934819Y-77738571D01*
X83934819Y-77738571D02*
X83887200Y-77643333D01*
X83887200Y-77643333D02*
X83839580Y-77595714D01*
X83839580Y-77595714D02*
X83744342Y-77548095D01*
X83744342Y-77548095D02*
X83553866Y-77548095D01*
X83553866Y-77548095D02*
X83458628Y-77595714D01*
X83458628Y-77595714D02*
X83411009Y-77643333D01*
X83411009Y-77643333D02*
X83363390Y-77738571D01*
X77289580Y-99796666D02*
X77337200Y-99844285D01*
X77337200Y-99844285D02*
X77384819Y-99987142D01*
X77384819Y-99987142D02*
X77384819Y-100082380D01*
X77384819Y-100082380D02*
X77337200Y-100225237D01*
X77337200Y-100225237D02*
X77241961Y-100320475D01*
X77241961Y-100320475D02*
X77146723Y-100368094D01*
X77146723Y-100368094D02*
X76956247Y-100415713D01*
X76956247Y-100415713D02*
X76813390Y-100415713D01*
X76813390Y-100415713D02*
X76622914Y-100368094D01*
X76622914Y-100368094D02*
X76527676Y-100320475D01*
X76527676Y-100320475D02*
X76432438Y-100225237D01*
X76432438Y-100225237D02*
X76384819Y-100082380D01*
X76384819Y-100082380D02*
X76384819Y-99987142D01*
X76384819Y-99987142D02*
X76432438Y-99844285D01*
X76432438Y-99844285D02*
X76480057Y-99796666D01*
X76384819Y-99463332D02*
X76384819Y-98796666D01*
X76384819Y-98796666D02*
X77384819Y-99225237D01*
X84104819Y-72686666D02*
X83628628Y-73019999D01*
X84104819Y-73258094D02*
X83104819Y-73258094D01*
X83104819Y-73258094D02*
X83104819Y-72877142D01*
X83104819Y-72877142D02*
X83152438Y-72781904D01*
X83152438Y-72781904D02*
X83200057Y-72734285D01*
X83200057Y-72734285D02*
X83295295Y-72686666D01*
X83295295Y-72686666D02*
X83438152Y-72686666D01*
X83438152Y-72686666D02*
X83533390Y-72734285D01*
X83533390Y-72734285D02*
X83581009Y-72781904D01*
X83581009Y-72781904D02*
X83628628Y-72877142D01*
X83628628Y-72877142D02*
X83628628Y-73258094D01*
X83104819Y-71829523D02*
X83104819Y-72019999D01*
X83104819Y-72019999D02*
X83152438Y-72115237D01*
X83152438Y-72115237D02*
X83200057Y-72162856D01*
X83200057Y-72162856D02*
X83342914Y-72258094D01*
X83342914Y-72258094D02*
X83533390Y-72305713D01*
X83533390Y-72305713D02*
X83914342Y-72305713D01*
X83914342Y-72305713D02*
X84009580Y-72258094D01*
X84009580Y-72258094D02*
X84057200Y-72210475D01*
X84057200Y-72210475D02*
X84104819Y-72115237D01*
X84104819Y-72115237D02*
X84104819Y-71924761D01*
X84104819Y-71924761D02*
X84057200Y-71829523D01*
X84057200Y-71829523D02*
X84009580Y-71781904D01*
X84009580Y-71781904D02*
X83914342Y-71734285D01*
X83914342Y-71734285D02*
X83676247Y-71734285D01*
X83676247Y-71734285D02*
X83581009Y-71781904D01*
X83581009Y-71781904D02*
X83533390Y-71829523D01*
X83533390Y-71829523D02*
X83485771Y-71924761D01*
X83485771Y-71924761D02*
X83485771Y-72115237D01*
X83485771Y-72115237D02*
X83533390Y-72210475D01*
X83533390Y-72210475D02*
X83581009Y-72258094D01*
X83581009Y-72258094D02*
X83676247Y-72305713D01*
X78470544Y-100383754D02*
X78571559Y-99811335D01*
X78066483Y-99979693D02*
X78773590Y-99272587D01*
X78773590Y-99272587D02*
X79042964Y-99541961D01*
X79042964Y-99541961D02*
X79076636Y-99642976D01*
X79076636Y-99642976D02*
X79076636Y-99710319D01*
X79076636Y-99710319D02*
X79042964Y-99811335D01*
X79042964Y-99811335D02*
X78941949Y-99912350D01*
X78941949Y-99912350D02*
X78840933Y-99946022D01*
X78840933Y-99946022D02*
X78773590Y-99946022D01*
X78773590Y-99946022D02*
X78672575Y-99912350D01*
X78672575Y-99912350D02*
X78403201Y-99642976D01*
X79413353Y-99912350D02*
X79851086Y-100350083D01*
X79851086Y-100350083D02*
X79346010Y-100383754D01*
X79346010Y-100383754D02*
X79447025Y-100484770D01*
X79447025Y-100484770D02*
X79480697Y-100585785D01*
X79480697Y-100585785D02*
X79480697Y-100653128D01*
X79480697Y-100653128D02*
X79447025Y-100754144D01*
X79447025Y-100754144D02*
X79278666Y-100922502D01*
X79278666Y-100922502D02*
X79177651Y-100956174D01*
X79177651Y-100956174D02*
X79110307Y-100956174D01*
X79110307Y-100956174D02*
X79009292Y-100922502D01*
X79009292Y-100922502D02*
X78807262Y-100720472D01*
X78807262Y-100720472D02*
X78773590Y-100619457D01*
X78773590Y-100619457D02*
X78773590Y-100552113D01*
X77633333Y-69484819D02*
X77300000Y-69008628D01*
X77061905Y-69484819D02*
X77061905Y-68484819D01*
X77061905Y-68484819D02*
X77442857Y-68484819D01*
X77442857Y-68484819D02*
X77538095Y-68532438D01*
X77538095Y-68532438D02*
X77585714Y-68580057D01*
X77585714Y-68580057D02*
X77633333Y-68675295D01*
X77633333Y-68675295D02*
X77633333Y-68818152D01*
X77633333Y-68818152D02*
X77585714Y-68913390D01*
X77585714Y-68913390D02*
X77538095Y-68961009D01*
X77538095Y-68961009D02*
X77442857Y-69008628D01*
X77442857Y-69008628D02*
X77061905Y-69008628D01*
X78538095Y-68484819D02*
X78061905Y-68484819D01*
X78061905Y-68484819D02*
X78014286Y-68961009D01*
X78014286Y-68961009D02*
X78061905Y-68913390D01*
X78061905Y-68913390D02*
X78157143Y-68865771D01*
X78157143Y-68865771D02*
X78395238Y-68865771D01*
X78395238Y-68865771D02*
X78490476Y-68913390D01*
X78490476Y-68913390D02*
X78538095Y-68961009D01*
X78538095Y-68961009D02*
X78585714Y-69056247D01*
X78585714Y-69056247D02*
X78585714Y-69294342D01*
X78585714Y-69294342D02*
X78538095Y-69389580D01*
X78538095Y-69389580D02*
X78490476Y-69437200D01*
X78490476Y-69437200D02*
X78395238Y-69484819D01*
X78395238Y-69484819D02*
X78157143Y-69484819D01*
X78157143Y-69484819D02*
X78061905Y-69437200D01*
X78061905Y-69437200D02*
X78014286Y-69389580D01*
X72155142Y-110770180D02*
X72107523Y-110817800D01*
X72107523Y-110817800D02*
X71964666Y-110865419D01*
X71964666Y-110865419D02*
X71869428Y-110865419D01*
X71869428Y-110865419D02*
X71726571Y-110817800D01*
X71726571Y-110817800D02*
X71631333Y-110722561D01*
X71631333Y-110722561D02*
X71583714Y-110627323D01*
X71583714Y-110627323D02*
X71536095Y-110436847D01*
X71536095Y-110436847D02*
X71536095Y-110293990D01*
X71536095Y-110293990D02*
X71583714Y-110103514D01*
X71583714Y-110103514D02*
X71631333Y-110008276D01*
X71631333Y-110008276D02*
X71726571Y-109913038D01*
X71726571Y-109913038D02*
X71869428Y-109865419D01*
X71869428Y-109865419D02*
X71964666Y-109865419D01*
X71964666Y-109865419D02*
X72107523Y-109913038D01*
X72107523Y-109913038D02*
X72155142Y-109960657D01*
X73107523Y-110865419D02*
X72536095Y-110865419D01*
X72821809Y-110865419D02*
X72821809Y-109865419D01*
X72821809Y-109865419D02*
X72726571Y-110008276D01*
X72726571Y-110008276D02*
X72631333Y-110103514D01*
X72631333Y-110103514D02*
X72536095Y-110151133D01*
X73488476Y-109960657D02*
X73536095Y-109913038D01*
X73536095Y-109913038D02*
X73631333Y-109865419D01*
X73631333Y-109865419D02*
X73869428Y-109865419D01*
X73869428Y-109865419D02*
X73964666Y-109913038D01*
X73964666Y-109913038D02*
X74012285Y-109960657D01*
X74012285Y-109960657D02*
X74059904Y-110055895D01*
X74059904Y-110055895D02*
X74059904Y-110151133D01*
X74059904Y-110151133D02*
X74012285Y-110293990D01*
X74012285Y-110293990D02*
X73440857Y-110865419D01*
X73440857Y-110865419D02*
X74059904Y-110865419D01*
X82139693Y-97108830D02*
X82139693Y-97176174D01*
X82139693Y-97176174D02*
X82072349Y-97310861D01*
X82072349Y-97310861D02*
X82005006Y-97378204D01*
X82005006Y-97378204D02*
X81870319Y-97445548D01*
X81870319Y-97445548D02*
X81735632Y-97445548D01*
X81735632Y-97445548D02*
X81634617Y-97411876D01*
X81634617Y-97411876D02*
X81466258Y-97310861D01*
X81466258Y-97310861D02*
X81365243Y-97209846D01*
X81365243Y-97209846D02*
X81264227Y-97041487D01*
X81264227Y-97041487D02*
X81230556Y-96940472D01*
X81230556Y-96940472D02*
X81230556Y-96805785D01*
X81230556Y-96805785D02*
X81297899Y-96671098D01*
X81297899Y-96671098D02*
X81365243Y-96603754D01*
X81365243Y-96603754D02*
X81499930Y-96536411D01*
X81499930Y-96536411D02*
X81567273Y-96536411D01*
X82880471Y-96502739D02*
X82476410Y-96906800D01*
X82678441Y-96704769D02*
X81971334Y-95997663D01*
X81971334Y-95997663D02*
X82005006Y-96166021D01*
X82005006Y-96166021D02*
X82005006Y-96300708D01*
X82005006Y-96300708D02*
X81971334Y-96401724D01*
X82779456Y-95189540D02*
X82644769Y-95324227D01*
X82644769Y-95324227D02*
X82611098Y-95425243D01*
X82611098Y-95425243D02*
X82611098Y-95492586D01*
X82611098Y-95492586D02*
X82644769Y-95660945D01*
X82644769Y-95660945D02*
X82745785Y-95829304D01*
X82745785Y-95829304D02*
X83015159Y-96098678D01*
X83015159Y-96098678D02*
X83116174Y-96132349D01*
X83116174Y-96132349D02*
X83183517Y-96132349D01*
X83183517Y-96132349D02*
X83284533Y-96098678D01*
X83284533Y-96098678D02*
X83419220Y-95963991D01*
X83419220Y-95963991D02*
X83452891Y-95862975D01*
X83452891Y-95862975D02*
X83452891Y-95795632D01*
X83452891Y-95795632D02*
X83419220Y-95694617D01*
X83419220Y-95694617D02*
X83250861Y-95526258D01*
X83250861Y-95526258D02*
X83149846Y-95492586D01*
X83149846Y-95492586D02*
X83082502Y-95492586D01*
X83082502Y-95492586D02*
X82981487Y-95526258D01*
X82981487Y-95526258D02*
X82846800Y-95660945D01*
X82846800Y-95660945D02*
X82813128Y-95761960D01*
X82813128Y-95761960D02*
X82813128Y-95829304D01*
X82813128Y-95829304D02*
X82846800Y-95930319D01*
X73959580Y-99992857D02*
X74007200Y-100040476D01*
X74007200Y-100040476D02*
X74054819Y-100183333D01*
X74054819Y-100183333D02*
X74054819Y-100278571D01*
X74054819Y-100278571D02*
X74007200Y-100421428D01*
X74007200Y-100421428D02*
X73911961Y-100516666D01*
X73911961Y-100516666D02*
X73816723Y-100564285D01*
X73816723Y-100564285D02*
X73626247Y-100611904D01*
X73626247Y-100611904D02*
X73483390Y-100611904D01*
X73483390Y-100611904D02*
X73292914Y-100564285D01*
X73292914Y-100564285D02*
X73197676Y-100516666D01*
X73197676Y-100516666D02*
X73102438Y-100421428D01*
X73102438Y-100421428D02*
X73054819Y-100278571D01*
X73054819Y-100278571D02*
X73054819Y-100183333D01*
X73054819Y-100183333D02*
X73102438Y-100040476D01*
X73102438Y-100040476D02*
X73150057Y-99992857D01*
X74054819Y-99040476D02*
X74054819Y-99611904D01*
X74054819Y-99326190D02*
X73054819Y-99326190D01*
X73054819Y-99326190D02*
X73197676Y-99421428D01*
X73197676Y-99421428D02*
X73292914Y-99516666D01*
X73292914Y-99516666D02*
X73340533Y-99611904D01*
X73388152Y-98183333D02*
X74054819Y-98183333D01*
X73007200Y-98421428D02*
X73721485Y-98659523D01*
X73721485Y-98659523D02*
X73721485Y-98040476D01*
X76748095Y-72514819D02*
X76748095Y-73324342D01*
X76748095Y-73324342D02*
X76795714Y-73419580D01*
X76795714Y-73419580D02*
X76843333Y-73467200D01*
X76843333Y-73467200D02*
X76938571Y-73514819D01*
X76938571Y-73514819D02*
X77129047Y-73514819D01*
X77129047Y-73514819D02*
X77224285Y-73467200D01*
X77224285Y-73467200D02*
X77271904Y-73419580D01*
X77271904Y-73419580D02*
X77319523Y-73324342D01*
X77319523Y-73324342D02*
X77319523Y-72514819D01*
X77700476Y-72514819D02*
X78319523Y-72514819D01*
X78319523Y-72514819D02*
X77986190Y-72895771D01*
X77986190Y-72895771D02*
X78129047Y-72895771D01*
X78129047Y-72895771D02*
X78224285Y-72943390D01*
X78224285Y-72943390D02*
X78271904Y-72991009D01*
X78271904Y-72991009D02*
X78319523Y-73086247D01*
X78319523Y-73086247D02*
X78319523Y-73324342D01*
X78319523Y-73324342D02*
X78271904Y-73419580D01*
X78271904Y-73419580D02*
X78224285Y-73467200D01*
X78224285Y-73467200D02*
X78129047Y-73514819D01*
X78129047Y-73514819D02*
X77843333Y-73514819D01*
X77843333Y-73514819D02*
X77748095Y-73467200D01*
X77748095Y-73467200D02*
X77700476Y-73419580D01*
X83154819Y-101472857D02*
X82678628Y-101806190D01*
X83154819Y-102044285D02*
X82154819Y-102044285D01*
X82154819Y-102044285D02*
X82154819Y-101663333D01*
X82154819Y-101663333D02*
X82202438Y-101568095D01*
X82202438Y-101568095D02*
X82250057Y-101520476D01*
X82250057Y-101520476D02*
X82345295Y-101472857D01*
X82345295Y-101472857D02*
X82488152Y-101472857D01*
X82488152Y-101472857D02*
X82583390Y-101520476D01*
X82583390Y-101520476D02*
X82631009Y-101568095D01*
X82631009Y-101568095D02*
X82678628Y-101663333D01*
X82678628Y-101663333D02*
X82678628Y-102044285D01*
X83154819Y-100520476D02*
X83154819Y-101091904D01*
X83154819Y-100806190D02*
X82154819Y-100806190D01*
X82154819Y-100806190D02*
X82297676Y-100901428D01*
X82297676Y-100901428D02*
X82392914Y-100996666D01*
X82392914Y-100996666D02*
X82440533Y-101091904D01*
X83154819Y-99568095D02*
X83154819Y-100139523D01*
X83154819Y-99853809D02*
X82154819Y-99853809D01*
X82154819Y-99853809D02*
X82297676Y-99949047D01*
X82297676Y-99949047D02*
X82392914Y-100044285D01*
X82392914Y-100044285D02*
X82440533Y-100139523D01*
X82344819Y-82906666D02*
X81868628Y-83239999D01*
X82344819Y-83478094D02*
X81344819Y-83478094D01*
X81344819Y-83478094D02*
X81344819Y-83097142D01*
X81344819Y-83097142D02*
X81392438Y-83001904D01*
X81392438Y-83001904D02*
X81440057Y-82954285D01*
X81440057Y-82954285D02*
X81535295Y-82906666D01*
X81535295Y-82906666D02*
X81678152Y-82906666D01*
X81678152Y-82906666D02*
X81773390Y-82954285D01*
X81773390Y-82954285D02*
X81821009Y-83001904D01*
X81821009Y-83001904D02*
X81868628Y-83097142D01*
X81868628Y-83097142D02*
X81868628Y-83478094D01*
X82344819Y-82430475D02*
X82344819Y-82239999D01*
X82344819Y-82239999D02*
X82297200Y-82144761D01*
X82297200Y-82144761D02*
X82249580Y-82097142D01*
X82249580Y-82097142D02*
X82106723Y-82001904D01*
X82106723Y-82001904D02*
X81916247Y-81954285D01*
X81916247Y-81954285D02*
X81535295Y-81954285D01*
X81535295Y-81954285D02*
X81440057Y-82001904D01*
X81440057Y-82001904D02*
X81392438Y-82049523D01*
X81392438Y-82049523D02*
X81344819Y-82144761D01*
X81344819Y-82144761D02*
X81344819Y-82335237D01*
X81344819Y-82335237D02*
X81392438Y-82430475D01*
X81392438Y-82430475D02*
X81440057Y-82478094D01*
X81440057Y-82478094D02*
X81535295Y-82525713D01*
X81535295Y-82525713D02*
X81773390Y-82525713D01*
X81773390Y-82525713D02*
X81868628Y-82478094D01*
X81868628Y-82478094D02*
X81916247Y-82430475D01*
X81916247Y-82430475D02*
X81963866Y-82335237D01*
X81963866Y-82335237D02*
X81963866Y-82144761D01*
X81963866Y-82144761D02*
X81916247Y-82049523D01*
X81916247Y-82049523D02*
X81868628Y-82001904D01*
X81868628Y-82001904D02*
X81773390Y-81954285D01*
X81281905Y-67434819D02*
X81281905Y-66434819D01*
X81281905Y-66434819D02*
X81520000Y-66434819D01*
X81520000Y-66434819D02*
X81662857Y-66482438D01*
X81662857Y-66482438D02*
X81758095Y-66577676D01*
X81758095Y-66577676D02*
X81805714Y-66672914D01*
X81805714Y-66672914D02*
X81853333Y-66863390D01*
X81853333Y-66863390D02*
X81853333Y-67006247D01*
X81853333Y-67006247D02*
X81805714Y-67196723D01*
X81805714Y-67196723D02*
X81758095Y-67291961D01*
X81758095Y-67291961D02*
X81662857Y-67387200D01*
X81662857Y-67387200D02*
X81520000Y-67434819D01*
X81520000Y-67434819D02*
X81281905Y-67434819D01*
X82805714Y-67434819D02*
X82234286Y-67434819D01*
X82520000Y-67434819D02*
X82520000Y-66434819D01*
X82520000Y-66434819D02*
X82424762Y-66577676D01*
X82424762Y-66577676D02*
X82329524Y-66672914D01*
X82329524Y-66672914D02*
X82234286Y-66720533D01*
X72625219Y-115897866D02*
X72149028Y-116231199D01*
X72625219Y-116469294D02*
X71625219Y-116469294D01*
X71625219Y-116469294D02*
X71625219Y-116088342D01*
X71625219Y-116088342D02*
X71672838Y-115993104D01*
X71672838Y-115993104D02*
X71720457Y-115945485D01*
X71720457Y-115945485D02*
X71815695Y-115897866D01*
X71815695Y-115897866D02*
X71958552Y-115897866D01*
X71958552Y-115897866D02*
X72053790Y-115945485D01*
X72053790Y-115945485D02*
X72101409Y-115993104D01*
X72101409Y-115993104D02*
X72149028Y-116088342D01*
X72149028Y-116088342D02*
X72149028Y-116469294D01*
X71625219Y-115564532D02*
X71625219Y-114897866D01*
X71625219Y-114897866D02*
X72625219Y-115326437D01*
X72637887Y-89606411D02*
X72570543Y-89606411D01*
X72570543Y-89606411D02*
X72435856Y-89539067D01*
X72435856Y-89539067D02*
X72368513Y-89471724D01*
X72368513Y-89471724D02*
X72301169Y-89337037D01*
X72301169Y-89337037D02*
X72301169Y-89202350D01*
X72301169Y-89202350D02*
X72334841Y-89101335D01*
X72334841Y-89101335D02*
X72435856Y-88932976D01*
X72435856Y-88932976D02*
X72536871Y-88831961D01*
X72536871Y-88831961D02*
X72705230Y-88730945D01*
X72705230Y-88730945D02*
X72806245Y-88697274D01*
X72806245Y-88697274D02*
X72940932Y-88697274D01*
X72940932Y-88697274D02*
X73075619Y-88764617D01*
X73075619Y-88764617D02*
X73142963Y-88831961D01*
X73142963Y-88831961D02*
X73210306Y-88966648D01*
X73210306Y-88966648D02*
X73210306Y-89033991D01*
X73513352Y-89202350D02*
X73951085Y-89640083D01*
X73951085Y-89640083D02*
X73446009Y-89673754D01*
X73446009Y-89673754D02*
X73547024Y-89774770D01*
X73547024Y-89774770D02*
X73580696Y-89875785D01*
X73580696Y-89875785D02*
X73580696Y-89943128D01*
X73580696Y-89943128D02*
X73547024Y-90044144D01*
X73547024Y-90044144D02*
X73378665Y-90212502D01*
X73378665Y-90212502D02*
X73277650Y-90246174D01*
X73277650Y-90246174D02*
X73210306Y-90246174D01*
X73210306Y-90246174D02*
X73109291Y-90212502D01*
X73109291Y-90212502D02*
X72907261Y-90010472D01*
X72907261Y-90010472D02*
X72873589Y-89909457D01*
X72873589Y-89909457D02*
X72873589Y-89842113D01*
X75383333Y-78844819D02*
X75050000Y-78368628D01*
X74811905Y-78844819D02*
X74811905Y-77844819D01*
X74811905Y-77844819D02*
X75192857Y-77844819D01*
X75192857Y-77844819D02*
X75288095Y-77892438D01*
X75288095Y-77892438D02*
X75335714Y-77940057D01*
X75335714Y-77940057D02*
X75383333Y-78035295D01*
X75383333Y-78035295D02*
X75383333Y-78178152D01*
X75383333Y-78178152D02*
X75335714Y-78273390D01*
X75335714Y-78273390D02*
X75288095Y-78321009D01*
X75288095Y-78321009D02*
X75192857Y-78368628D01*
X75192857Y-78368628D02*
X74811905Y-78368628D01*
X75764286Y-77940057D02*
X75811905Y-77892438D01*
X75811905Y-77892438D02*
X75907143Y-77844819D01*
X75907143Y-77844819D02*
X76145238Y-77844819D01*
X76145238Y-77844819D02*
X76240476Y-77892438D01*
X76240476Y-77892438D02*
X76288095Y-77940057D01*
X76288095Y-77940057D02*
X76335714Y-78035295D01*
X76335714Y-78035295D02*
X76335714Y-78130533D01*
X76335714Y-78130533D02*
X76288095Y-78273390D01*
X76288095Y-78273390D02*
X75716667Y-78844819D01*
X75716667Y-78844819D02*
X76335714Y-78844819D01*
X84089580Y-88196666D02*
X84137200Y-88244285D01*
X84137200Y-88244285D02*
X84184819Y-88387142D01*
X84184819Y-88387142D02*
X84184819Y-88482380D01*
X84184819Y-88482380D02*
X84137200Y-88625237D01*
X84137200Y-88625237D02*
X84041961Y-88720475D01*
X84041961Y-88720475D02*
X83946723Y-88768094D01*
X83946723Y-88768094D02*
X83756247Y-88815713D01*
X83756247Y-88815713D02*
X83613390Y-88815713D01*
X83613390Y-88815713D02*
X83422914Y-88768094D01*
X83422914Y-88768094D02*
X83327676Y-88720475D01*
X83327676Y-88720475D02*
X83232438Y-88625237D01*
X83232438Y-88625237D02*
X83184819Y-88482380D01*
X83184819Y-88482380D02*
X83184819Y-88387142D01*
X83184819Y-88387142D02*
X83232438Y-88244285D01*
X83232438Y-88244285D02*
X83280057Y-88196666D01*
X84184819Y-87720475D02*
X84184819Y-87529999D01*
X84184819Y-87529999D02*
X84137200Y-87434761D01*
X84137200Y-87434761D02*
X84089580Y-87387142D01*
X84089580Y-87387142D02*
X83946723Y-87291904D01*
X83946723Y-87291904D02*
X83756247Y-87244285D01*
X83756247Y-87244285D02*
X83375295Y-87244285D01*
X83375295Y-87244285D02*
X83280057Y-87291904D01*
X83280057Y-87291904D02*
X83232438Y-87339523D01*
X83232438Y-87339523D02*
X83184819Y-87434761D01*
X83184819Y-87434761D02*
X83184819Y-87625237D01*
X83184819Y-87625237D02*
X83232438Y-87720475D01*
X83232438Y-87720475D02*
X83280057Y-87768094D01*
X83280057Y-87768094D02*
X83375295Y-87815713D01*
X83375295Y-87815713D02*
X83613390Y-87815713D01*
X83613390Y-87815713D02*
X83708628Y-87768094D01*
X83708628Y-87768094D02*
X83756247Y-87720475D01*
X83756247Y-87720475D02*
X83803866Y-87625237D01*
X83803866Y-87625237D02*
X83803866Y-87434761D01*
X83803866Y-87434761D02*
X83756247Y-87339523D01*
X83756247Y-87339523D02*
X83708628Y-87291904D01*
X83708628Y-87291904D02*
X83613390Y-87244285D01*
X72563333Y-69444819D02*
X72230000Y-68968628D01*
X71991905Y-69444819D02*
X71991905Y-68444819D01*
X71991905Y-68444819D02*
X72372857Y-68444819D01*
X72372857Y-68444819D02*
X72468095Y-68492438D01*
X72468095Y-68492438D02*
X72515714Y-68540057D01*
X72515714Y-68540057D02*
X72563333Y-68635295D01*
X72563333Y-68635295D02*
X72563333Y-68778152D01*
X72563333Y-68778152D02*
X72515714Y-68873390D01*
X72515714Y-68873390D02*
X72468095Y-68921009D01*
X72468095Y-68921009D02*
X72372857Y-68968628D01*
X72372857Y-68968628D02*
X71991905Y-68968628D01*
X73420476Y-68778152D02*
X73420476Y-69444819D01*
X73182381Y-68397200D02*
X72944286Y-69111485D01*
X72944286Y-69111485D02*
X73563333Y-69111485D01*
X80492835Y-107278537D02*
X80492835Y-107345881D01*
X80492835Y-107345881D02*
X80425491Y-107480568D01*
X80425491Y-107480568D02*
X80358148Y-107547911D01*
X80358148Y-107547911D02*
X80223461Y-107615255D01*
X80223461Y-107615255D02*
X80088774Y-107615255D01*
X80088774Y-107615255D02*
X79987759Y-107581583D01*
X79987759Y-107581583D02*
X79819400Y-107480568D01*
X79819400Y-107480568D02*
X79718385Y-107379553D01*
X79718385Y-107379553D02*
X79617369Y-107211194D01*
X79617369Y-107211194D02*
X79583698Y-107110179D01*
X79583698Y-107110179D02*
X79583698Y-106975492D01*
X79583698Y-106975492D02*
X79651041Y-106840805D01*
X79651041Y-106840805D02*
X79718385Y-106773461D01*
X79718385Y-106773461D02*
X79853072Y-106706118D01*
X79853072Y-106706118D02*
X79920415Y-106706118D01*
X80189789Y-106436744D02*
X80189789Y-106369400D01*
X80189789Y-106369400D02*
X80223461Y-106268385D01*
X80223461Y-106268385D02*
X80391820Y-106100026D01*
X80391820Y-106100026D02*
X80492835Y-106066354D01*
X80492835Y-106066354D02*
X80560178Y-106066354D01*
X80560178Y-106066354D02*
X80661194Y-106100026D01*
X80661194Y-106100026D02*
X80728537Y-106167370D01*
X80728537Y-106167370D02*
X80795881Y-106302057D01*
X80795881Y-106302057D02*
X80795881Y-107110179D01*
X80795881Y-107110179D02*
X81233613Y-106672446D01*
X73356617Y-70914778D02*
X73308998Y-70962398D01*
X73308998Y-70962398D02*
X73166141Y-71010017D01*
X73166141Y-71010017D02*
X73070903Y-71010017D01*
X73070903Y-71010017D02*
X72928046Y-70962398D01*
X72928046Y-70962398D02*
X72832808Y-70867159D01*
X72832808Y-70867159D02*
X72785189Y-70771921D01*
X72785189Y-70771921D02*
X72737570Y-70581445D01*
X72737570Y-70581445D02*
X72737570Y-70438588D01*
X72737570Y-70438588D02*
X72785189Y-70248112D01*
X72785189Y-70248112D02*
X72832808Y-70152874D01*
X72832808Y-70152874D02*
X72928046Y-70057636D01*
X72928046Y-70057636D02*
X73070903Y-70010017D01*
X73070903Y-70010017D02*
X73166141Y-70010017D01*
X73166141Y-70010017D02*
X73308998Y-70057636D01*
X73308998Y-70057636D02*
X73356617Y-70105255D01*
X74213760Y-70010017D02*
X74023284Y-70010017D01*
X74023284Y-70010017D02*
X73928046Y-70057636D01*
X73928046Y-70057636D02*
X73880427Y-70105255D01*
X73880427Y-70105255D02*
X73785189Y-70248112D01*
X73785189Y-70248112D02*
X73737570Y-70438588D01*
X73737570Y-70438588D02*
X73737570Y-70819540D01*
X73737570Y-70819540D02*
X73785189Y-70914778D01*
X73785189Y-70914778D02*
X73832808Y-70962398D01*
X73832808Y-70962398D02*
X73928046Y-71010017D01*
X73928046Y-71010017D02*
X74118522Y-71010017D01*
X74118522Y-71010017D02*
X74213760Y-70962398D01*
X74213760Y-70962398D02*
X74261379Y-70914778D01*
X74261379Y-70914778D02*
X74308998Y-70819540D01*
X74308998Y-70819540D02*
X74308998Y-70581445D01*
X74308998Y-70581445D02*
X74261379Y-70486207D01*
X74261379Y-70486207D02*
X74213760Y-70438588D01*
X74213760Y-70438588D02*
X74118522Y-70390969D01*
X74118522Y-70390969D02*
X73928046Y-70390969D01*
X73928046Y-70390969D02*
X73832808Y-70438588D01*
X73832808Y-70438588D02*
X73785189Y-70486207D01*
X73785189Y-70486207D02*
X73737570Y-70581445D01*
X84209581Y-93092857D02*
X84257201Y-93140476D01*
X84257201Y-93140476D02*
X84304820Y-93283333D01*
X84304820Y-93283333D02*
X84304820Y-93378571D01*
X84304820Y-93378571D02*
X84257201Y-93521428D01*
X84257201Y-93521428D02*
X84161962Y-93616666D01*
X84161962Y-93616666D02*
X84066724Y-93664285D01*
X84066724Y-93664285D02*
X83876248Y-93711904D01*
X83876248Y-93711904D02*
X83733391Y-93711904D01*
X83733391Y-93711904D02*
X83542915Y-93664285D01*
X83542915Y-93664285D02*
X83447677Y-93616666D01*
X83447677Y-93616666D02*
X83352439Y-93521428D01*
X83352439Y-93521428D02*
X83304820Y-93378571D01*
X83304820Y-93378571D02*
X83304820Y-93283333D01*
X83304820Y-93283333D02*
X83352439Y-93140476D01*
X83352439Y-93140476D02*
X83400058Y-93092857D01*
X84304820Y-92140476D02*
X84304820Y-92711904D01*
X84304820Y-92426190D02*
X83304820Y-92426190D01*
X83304820Y-92426190D02*
X83447677Y-92521428D01*
X83447677Y-92521428D02*
X83542915Y-92616666D01*
X83542915Y-92616666D02*
X83590534Y-92711904D01*
X83304820Y-91521428D02*
X83304820Y-91426190D01*
X83304820Y-91426190D02*
X83352439Y-91330952D01*
X83352439Y-91330952D02*
X83400058Y-91283333D01*
X83400058Y-91283333D02*
X83495296Y-91235714D01*
X83495296Y-91235714D02*
X83685772Y-91188095D01*
X83685772Y-91188095D02*
X83923867Y-91188095D01*
X83923867Y-91188095D02*
X84114343Y-91235714D01*
X84114343Y-91235714D02*
X84209581Y-91283333D01*
X84209581Y-91283333D02*
X84257201Y-91330952D01*
X84257201Y-91330952D02*
X84304820Y-91426190D01*
X84304820Y-91426190D02*
X84304820Y-91521428D01*
X84304820Y-91521428D02*
X84257201Y-91616666D01*
X84257201Y-91616666D02*
X84209581Y-91664285D01*
X84209581Y-91664285D02*
X84114343Y-91711904D01*
X84114343Y-91711904D02*
X83923867Y-91759523D01*
X83923867Y-91759523D02*
X83685772Y-91759523D01*
X83685772Y-91759523D02*
X83495296Y-91711904D01*
X83495296Y-91711904D02*
X83400058Y-91664285D01*
X83400058Y-91664285D02*
X83352439Y-91616666D01*
X83352439Y-91616666D02*
X83304820Y-91521428D01*
X77284819Y-71821904D02*
X78094342Y-71821904D01*
X78094342Y-71821904D02*
X78189580Y-71774285D01*
X78189580Y-71774285D02*
X78237200Y-71726666D01*
X78237200Y-71726666D02*
X78284819Y-71631428D01*
X78284819Y-71631428D02*
X78284819Y-71440952D01*
X78284819Y-71440952D02*
X78237200Y-71345714D01*
X78237200Y-71345714D02*
X78189580Y-71298095D01*
X78189580Y-71298095D02*
X78094342Y-71250476D01*
X78094342Y-71250476D02*
X77284819Y-71250476D01*
X77380057Y-70821904D02*
X77332438Y-70774285D01*
X77332438Y-70774285D02*
X77284819Y-70679047D01*
X77284819Y-70679047D02*
X77284819Y-70440952D01*
X77284819Y-70440952D02*
X77332438Y-70345714D01*
X77332438Y-70345714D02*
X77380057Y-70298095D01*
X77380057Y-70298095D02*
X77475295Y-70250476D01*
X77475295Y-70250476D02*
X77570533Y-70250476D01*
X77570533Y-70250476D02*
X77713390Y-70298095D01*
X77713390Y-70298095D02*
X78284819Y-70869523D01*
X78284819Y-70869523D02*
X78284819Y-70250476D01*
X83829580Y-98742857D02*
X83877200Y-98790476D01*
X83877200Y-98790476D02*
X83924819Y-98933333D01*
X83924819Y-98933333D02*
X83924819Y-99028571D01*
X83924819Y-99028571D02*
X83877200Y-99171428D01*
X83877200Y-99171428D02*
X83781961Y-99266666D01*
X83781961Y-99266666D02*
X83686723Y-99314285D01*
X83686723Y-99314285D02*
X83496247Y-99361904D01*
X83496247Y-99361904D02*
X83353390Y-99361904D01*
X83353390Y-99361904D02*
X83162914Y-99314285D01*
X83162914Y-99314285D02*
X83067676Y-99266666D01*
X83067676Y-99266666D02*
X82972438Y-99171428D01*
X82972438Y-99171428D02*
X82924819Y-99028571D01*
X82924819Y-99028571D02*
X82924819Y-98933333D01*
X82924819Y-98933333D02*
X82972438Y-98790476D01*
X82972438Y-98790476D02*
X83020057Y-98742857D01*
X83924819Y-97790476D02*
X83924819Y-98361904D01*
X83924819Y-98076190D02*
X82924819Y-98076190D01*
X82924819Y-98076190D02*
X83067676Y-98171428D01*
X83067676Y-98171428D02*
X83162914Y-98266666D01*
X83162914Y-98266666D02*
X83210533Y-98361904D01*
X82924819Y-96885714D02*
X82924819Y-97361904D01*
X82924819Y-97361904D02*
X83401009Y-97409523D01*
X83401009Y-97409523D02*
X83353390Y-97361904D01*
X83353390Y-97361904D02*
X83305771Y-97266666D01*
X83305771Y-97266666D02*
X83305771Y-97028571D01*
X83305771Y-97028571D02*
X83353390Y-96933333D01*
X83353390Y-96933333D02*
X83401009Y-96885714D01*
X83401009Y-96885714D02*
X83496247Y-96838095D01*
X83496247Y-96838095D02*
X83734342Y-96838095D01*
X83734342Y-96838095D02*
X83829580Y-96885714D01*
X83829580Y-96885714D02*
X83877200Y-96933333D01*
X83877200Y-96933333D02*
X83924819Y-97028571D01*
X83924819Y-97028571D02*
X83924819Y-97266666D01*
X83924819Y-97266666D02*
X83877200Y-97361904D01*
X83877200Y-97361904D02*
X83829580Y-97409523D01*
D11*
X73252716Y-102948536D02*
X72983342Y-103217910D01*
X73360466Y-102463663D02*
X73252716Y-102948536D01*
X73252716Y-102948536D02*
X73737590Y-102840787D01*
X73656777Y-103891345D02*
X73333528Y-103568096D01*
X73495153Y-103729721D02*
X74060838Y-103164035D01*
X74060838Y-103164035D02*
X73926151Y-103190973D01*
X73926151Y-103190973D02*
X73818402Y-103190973D01*
X73818402Y-103190973D02*
X73737589Y-103164035D01*
D10*
X71393333Y-73234819D02*
X71060000Y-72758628D01*
X70821905Y-73234819D02*
X70821905Y-72234819D01*
X70821905Y-72234819D02*
X71202857Y-72234819D01*
X71202857Y-72234819D02*
X71298095Y-72282438D01*
X71298095Y-72282438D02*
X71345714Y-72330057D01*
X71345714Y-72330057D02*
X71393333Y-72425295D01*
X71393333Y-72425295D02*
X71393333Y-72568152D01*
X71393333Y-72568152D02*
X71345714Y-72663390D01*
X71345714Y-72663390D02*
X71298095Y-72711009D01*
X71298095Y-72711009D02*
X71202857Y-72758628D01*
X71202857Y-72758628D02*
X70821905Y-72758628D01*
X72345714Y-73234819D02*
X71774286Y-73234819D01*
X72060000Y-73234819D02*
X72060000Y-72234819D01*
X72060000Y-72234819D02*
X71964762Y-72377676D01*
X71964762Y-72377676D02*
X71869524Y-72472914D01*
X71869524Y-72472914D02*
X71774286Y-72520533D01*
X81889580Y-87196666D02*
X81937200Y-87244285D01*
X81937200Y-87244285D02*
X81984819Y-87387142D01*
X81984819Y-87387142D02*
X81984819Y-87482380D01*
X81984819Y-87482380D02*
X81937200Y-87625237D01*
X81937200Y-87625237D02*
X81841961Y-87720475D01*
X81841961Y-87720475D02*
X81746723Y-87768094D01*
X81746723Y-87768094D02*
X81556247Y-87815713D01*
X81556247Y-87815713D02*
X81413390Y-87815713D01*
X81413390Y-87815713D02*
X81222914Y-87768094D01*
X81222914Y-87768094D02*
X81127676Y-87720475D01*
X81127676Y-87720475D02*
X81032438Y-87625237D01*
X81032438Y-87625237D02*
X80984819Y-87482380D01*
X80984819Y-87482380D02*
X80984819Y-87387142D01*
X80984819Y-87387142D02*
X81032438Y-87244285D01*
X81032438Y-87244285D02*
X81080057Y-87196666D01*
X81413390Y-86625237D02*
X81365771Y-86720475D01*
X81365771Y-86720475D02*
X81318152Y-86768094D01*
X81318152Y-86768094D02*
X81222914Y-86815713D01*
X81222914Y-86815713D02*
X81175295Y-86815713D01*
X81175295Y-86815713D02*
X81080057Y-86768094D01*
X81080057Y-86768094D02*
X81032438Y-86720475D01*
X81032438Y-86720475D02*
X80984819Y-86625237D01*
X80984819Y-86625237D02*
X80984819Y-86434761D01*
X80984819Y-86434761D02*
X81032438Y-86339523D01*
X81032438Y-86339523D02*
X81080057Y-86291904D01*
X81080057Y-86291904D02*
X81175295Y-86244285D01*
X81175295Y-86244285D02*
X81222914Y-86244285D01*
X81222914Y-86244285D02*
X81318152Y-86291904D01*
X81318152Y-86291904D02*
X81365771Y-86339523D01*
X81365771Y-86339523D02*
X81413390Y-86434761D01*
X81413390Y-86434761D02*
X81413390Y-86625237D01*
X81413390Y-86625237D02*
X81461009Y-86720475D01*
X81461009Y-86720475D02*
X81508628Y-86768094D01*
X81508628Y-86768094D02*
X81603866Y-86815713D01*
X81603866Y-86815713D02*
X81794342Y-86815713D01*
X81794342Y-86815713D02*
X81889580Y-86768094D01*
X81889580Y-86768094D02*
X81937200Y-86720475D01*
X81937200Y-86720475D02*
X81984819Y-86625237D01*
X81984819Y-86625237D02*
X81984819Y-86434761D01*
X81984819Y-86434761D02*
X81937200Y-86339523D01*
X81937200Y-86339523D02*
X81889580Y-86291904D01*
X81889580Y-86291904D02*
X81794342Y-86244285D01*
X81794342Y-86244285D02*
X81603866Y-86244285D01*
X81603866Y-86244285D02*
X81508628Y-86291904D01*
X81508628Y-86291904D02*
X81461009Y-86339523D01*
X81461009Y-86339523D02*
X81413390Y-86434761D01*
X76189693Y-87748830D02*
X76189693Y-87816174D01*
X76189693Y-87816174D02*
X76122349Y-87950861D01*
X76122349Y-87950861D02*
X76055006Y-88018204D01*
X76055006Y-88018204D02*
X75920319Y-88085548D01*
X75920319Y-88085548D02*
X75785632Y-88085548D01*
X75785632Y-88085548D02*
X75684617Y-88051876D01*
X75684617Y-88051876D02*
X75516258Y-87950861D01*
X75516258Y-87950861D02*
X75415243Y-87849846D01*
X75415243Y-87849846D02*
X75314227Y-87681487D01*
X75314227Y-87681487D02*
X75280556Y-87580472D01*
X75280556Y-87580472D02*
X75280556Y-87445785D01*
X75280556Y-87445785D02*
X75347899Y-87311098D01*
X75347899Y-87311098D02*
X75415243Y-87243754D01*
X75415243Y-87243754D02*
X75549930Y-87176411D01*
X75549930Y-87176411D02*
X75617273Y-87176411D01*
X76930471Y-87142739D02*
X76526410Y-87546800D01*
X76728441Y-87344769D02*
X76021334Y-86637663D01*
X76021334Y-86637663D02*
X76055006Y-86806021D01*
X76055006Y-86806021D02*
X76055006Y-86940708D01*
X76055006Y-86940708D02*
X76021334Y-87041724D01*
X77603907Y-86469304D02*
X77199846Y-86873365D01*
X77401876Y-86671334D02*
X76694769Y-85964227D01*
X76694769Y-85964227D02*
X76728441Y-86132586D01*
X76728441Y-86132586D02*
X76728441Y-86267273D01*
X76728441Y-86267273D02*
X76694769Y-86368288D01*
X74087887Y-106706410D02*
X74020543Y-106706410D01*
X74020543Y-106706410D02*
X73885856Y-106639066D01*
X73885856Y-106639066D02*
X73818513Y-106571723D01*
X73818513Y-106571723D02*
X73751169Y-106437036D01*
X73751169Y-106437036D02*
X73751169Y-106302349D01*
X73751169Y-106302349D02*
X73784841Y-106201334D01*
X73784841Y-106201334D02*
X73885856Y-106032975D01*
X73885856Y-106032975D02*
X73986871Y-105931960D01*
X73986871Y-105931960D02*
X74155230Y-105830944D01*
X74155230Y-105830944D02*
X74256245Y-105797273D01*
X74256245Y-105797273D02*
X74390932Y-105797273D01*
X74390932Y-105797273D02*
X74525619Y-105864616D01*
X74525619Y-105864616D02*
X74592963Y-105931960D01*
X74592963Y-105931960D02*
X74660306Y-106066647D01*
X74660306Y-106066647D02*
X74660306Y-106133990D01*
X74693978Y-107447188D02*
X74289917Y-107043127D01*
X74491948Y-107245158D02*
X75199054Y-106538051D01*
X75199054Y-106538051D02*
X75030696Y-106571723D01*
X75030696Y-106571723D02*
X74896009Y-106571723D01*
X74896009Y-106571723D02*
X74794993Y-106538051D01*
X80007142Y-89249580D02*
X79959523Y-89297200D01*
X79959523Y-89297200D02*
X79816666Y-89344819D01*
X79816666Y-89344819D02*
X79721428Y-89344819D01*
X79721428Y-89344819D02*
X79578571Y-89297200D01*
X79578571Y-89297200D02*
X79483333Y-89201961D01*
X79483333Y-89201961D02*
X79435714Y-89106723D01*
X79435714Y-89106723D02*
X79388095Y-88916247D01*
X79388095Y-88916247D02*
X79388095Y-88773390D01*
X79388095Y-88773390D02*
X79435714Y-88582914D01*
X79435714Y-88582914D02*
X79483333Y-88487676D01*
X79483333Y-88487676D02*
X79578571Y-88392438D01*
X79578571Y-88392438D02*
X79721428Y-88344819D01*
X79721428Y-88344819D02*
X79816666Y-88344819D01*
X79816666Y-88344819D02*
X79959523Y-88392438D01*
X79959523Y-88392438D02*
X80007142Y-88440057D01*
X80959523Y-89344819D02*
X80388095Y-89344819D01*
X80673809Y-89344819D02*
X80673809Y-88344819D01*
X80673809Y-88344819D02*
X80578571Y-88487676D01*
X80578571Y-88487676D02*
X80483333Y-88582914D01*
X80483333Y-88582914D02*
X80388095Y-88630533D01*
X81292857Y-88344819D02*
X81911904Y-88344819D01*
X81911904Y-88344819D02*
X81578571Y-88725771D01*
X81578571Y-88725771D02*
X81721428Y-88725771D01*
X81721428Y-88725771D02*
X81816666Y-88773390D01*
X81816666Y-88773390D02*
X81864285Y-88821009D01*
X81864285Y-88821009D02*
X81911904Y-88916247D01*
X81911904Y-88916247D02*
X81911904Y-89154342D01*
X81911904Y-89154342D02*
X81864285Y-89249580D01*
X81864285Y-89249580D02*
X81816666Y-89297200D01*
X81816666Y-89297200D02*
X81721428Y-89344819D01*
X81721428Y-89344819D02*
X81435714Y-89344819D01*
X81435714Y-89344819D02*
X81340476Y-89297200D01*
X81340476Y-89297200D02*
X81292857Y-89249580D01*
X83234819Y-104668094D02*
X82234819Y-104668094D01*
X82234819Y-104668094D02*
X82234819Y-104429999D01*
X82234819Y-104429999D02*
X82282438Y-104287142D01*
X82282438Y-104287142D02*
X82377676Y-104191904D01*
X82377676Y-104191904D02*
X82472914Y-104144285D01*
X82472914Y-104144285D02*
X82663390Y-104096666D01*
X82663390Y-104096666D02*
X82806247Y-104096666D01*
X82806247Y-104096666D02*
X82996723Y-104144285D01*
X82996723Y-104144285D02*
X83091961Y-104191904D01*
X83091961Y-104191904D02*
X83187200Y-104287142D01*
X83187200Y-104287142D02*
X83234819Y-104429999D01*
X83234819Y-104429999D02*
X83234819Y-104668094D01*
X82330057Y-103715713D02*
X82282438Y-103668094D01*
X82282438Y-103668094D02*
X82234819Y-103572856D01*
X82234819Y-103572856D02*
X82234819Y-103334761D01*
X82234819Y-103334761D02*
X82282438Y-103239523D01*
X82282438Y-103239523D02*
X82330057Y-103191904D01*
X82330057Y-103191904D02*
X82425295Y-103144285D01*
X82425295Y-103144285D02*
X82520533Y-103144285D01*
X82520533Y-103144285D02*
X82663390Y-103191904D01*
X82663390Y-103191904D02*
X83234819Y-103763332D01*
X83234819Y-103763332D02*
X83234819Y-103144285D01*
X76143333Y-110739580D02*
X76095714Y-110787200D01*
X76095714Y-110787200D02*
X75952857Y-110834819D01*
X75952857Y-110834819D02*
X75857619Y-110834819D01*
X75857619Y-110834819D02*
X75714762Y-110787200D01*
X75714762Y-110787200D02*
X75619524Y-110691961D01*
X75619524Y-110691961D02*
X75571905Y-110596723D01*
X75571905Y-110596723D02*
X75524286Y-110406247D01*
X75524286Y-110406247D02*
X75524286Y-110263390D01*
X75524286Y-110263390D02*
X75571905Y-110072914D01*
X75571905Y-110072914D02*
X75619524Y-109977676D01*
X75619524Y-109977676D02*
X75714762Y-109882438D01*
X75714762Y-109882438D02*
X75857619Y-109834819D01*
X75857619Y-109834819D02*
X75952857Y-109834819D01*
X75952857Y-109834819D02*
X76095714Y-109882438D01*
X76095714Y-109882438D02*
X76143333Y-109930057D01*
X77000476Y-110168152D02*
X77000476Y-110834819D01*
X76762381Y-109787200D02*
X76524286Y-110501485D01*
X76524286Y-110501485D02*
X77143333Y-110501485D01*
D11*
X73600476Y-79743855D02*
X73600476Y-80391474D01*
X73600476Y-80391474D02*
X73638571Y-80467664D01*
X73638571Y-80467664D02*
X73676666Y-80505760D01*
X73676666Y-80505760D02*
X73752857Y-80543855D01*
X73752857Y-80543855D02*
X73905238Y-80543855D01*
X73905238Y-80543855D02*
X73981428Y-80505760D01*
X73981428Y-80505760D02*
X74019523Y-80467664D01*
X74019523Y-80467664D02*
X74057619Y-80391474D01*
X74057619Y-80391474D02*
X74057619Y-79743855D01*
X74857618Y-80543855D02*
X74400475Y-80543855D01*
X74629047Y-80543855D02*
X74629047Y-79743855D01*
X74629047Y-79743855D02*
X74552856Y-79858140D01*
X74552856Y-79858140D02*
X74476666Y-79934331D01*
X74476666Y-79934331D02*
X74400475Y-79972426D01*
%TO.C,R8*%
X72765500Y-113423342D02*
X72765500Y-113897858D01*
X73810500Y-113423342D02*
X73810500Y-113897858D01*
%TO.C,R10*%
X82812500Y-85372742D02*
X82812500Y-85847258D01*
X83857500Y-85372742D02*
X83857500Y-85847258D01*
%TO.C,J2*%
X86340000Y-70030000D02*
X86340000Y-118350000D01*
X83680000Y-118350000D02*
X86340000Y-118350000D01*
X83680000Y-70030000D02*
X86340000Y-70030000D01*
X83680000Y-70030000D02*
X83680000Y-118350000D01*
X83680000Y-68760000D02*
X83680000Y-67430000D01*
X83680000Y-67430000D02*
X85010000Y-67430000D01*
%TO.C,C17*%
X76410000Y-72355580D02*
X76410000Y-72074420D01*
X75390000Y-72355580D02*
X75390000Y-72074420D01*
%TO.C,C5*%
X80150580Y-72630000D02*
X79869420Y-72630000D01*
X80150580Y-73650000D02*
X79869420Y-73650000D01*
%TO.C,C18*%
X82835580Y-80270000D02*
X82554420Y-80270000D01*
X82835580Y-81290000D02*
X82554420Y-81290000D01*
%TO.C,C7*%
X75200000Y-100014420D02*
X75200000Y-100295580D01*
X76220000Y-100014420D02*
X76220000Y-100295580D01*
%TO.C,R6*%
X81907500Y-71771542D02*
X81907500Y-72246058D01*
X82952500Y-71771542D02*
X82952500Y-72246058D01*
%TO.C,R3*%
X78939407Y-102388334D02*
X79274940Y-102723867D01*
X79678334Y-101649407D02*
X80013867Y-101984940D01*
%TO.C,R5*%
X79833342Y-69445500D02*
X80307858Y-69445500D01*
X79833342Y-68400500D02*
X80307858Y-68400500D01*
%TO.C,C12*%
X72945580Y-111106400D02*
X72664420Y-111106400D01*
X72945580Y-112126400D02*
X72664420Y-112126400D01*
%TO.C,C16*%
X82627978Y-94769227D02*
X82826789Y-94968038D01*
X83349227Y-94047978D02*
X83548038Y-94246789D01*
%TO.C,C14*%
X74180000Y-99229420D02*
X74180000Y-99510580D01*
X75200000Y-99229420D02*
X75200000Y-99510580D01*
%TO.C,U3*%
X76710000Y-73670000D02*
X76710000Y-74930000D01*
X76710000Y-80490000D02*
X76710000Y-79230000D01*
X80470000Y-73670000D02*
X76710000Y-73670000D01*
X82720000Y-80490000D02*
X76710000Y-80490000D01*
%TO.C,R11*%
X80847500Y-100047742D02*
X80847500Y-100522258D01*
X81892500Y-100047742D02*
X81892500Y-100522258D01*
%TO.C,R9*%
X81337500Y-84672742D02*
X81337500Y-85147258D01*
X82382500Y-84672742D02*
X82382500Y-85147258D01*
D12*
%TO.C,U4*%
X77160773Y-88646560D02*
G75*
G03*
X76960773Y-88646560I-100000J0D01*
G01*
X76960773Y-88646560D02*
G75*
G03*
X77160773Y-88646560I100000J0D01*
G01*
D11*
X77538070Y-98754651D02*
X77997689Y-98295032D01*
X82643381Y-93649340D02*
X82183762Y-94108959D01*
X77078451Y-98295032D02*
X77538070Y-98754651D01*
X82183762Y-93189721D02*
X82643381Y-93649340D01*
X72892378Y-94108959D02*
X72432759Y-93649340D01*
X77997689Y-89003648D02*
X77538070Y-88544029D01*
X72432759Y-93649340D02*
X72892378Y-93189721D01*
X77538070Y-88544029D02*
X77078451Y-89003648D01*
%TO.C,D1*%
X83165000Y-69710000D02*
X83165000Y-67425000D01*
X81695000Y-67425000D02*
X81695000Y-69710000D01*
X83165000Y-67425000D02*
X81695000Y-67425000D01*
%TO.C,R7*%
X72692900Y-113897858D02*
X72692900Y-113423342D01*
X71647900Y-113897858D02*
X71647900Y-113423342D01*
%TO.C,C3*%
X72662022Y-89910773D02*
X72463211Y-89711962D01*
X71940773Y-90632022D02*
X71741962Y-90433211D01*
%TO.C,R2*%
X75312742Y-80342500D02*
X75787258Y-80342500D01*
X75312742Y-79297500D02*
X75787258Y-79297500D01*
%TO.C,C9*%
X83095000Y-88600580D02*
X83095000Y-88319420D01*
X82075000Y-88600580D02*
X82075000Y-88319420D01*
%TO.C,R4*%
X75164858Y-68451300D02*
X74690342Y-68451300D01*
X75164858Y-69496300D02*
X74690342Y-69496300D01*
%TO.C,C2*%
X79084042Y-105435232D02*
X78885231Y-105634043D01*
X79805291Y-106156481D02*
X79606480Y-106355292D01*
%TO.C,C6*%
X73635580Y-71120000D02*
X73354420Y-71120000D01*
X73635580Y-72140000D02*
X73354420Y-72140000D01*
%TO.C,J8*%
X71340000Y-70030000D02*
X71340000Y-118350000D01*
X68680000Y-118350000D02*
X71340000Y-118350000D01*
X68680000Y-70030000D02*
X71340000Y-70030000D01*
X68680000Y-70030000D02*
X68680000Y-118350000D01*
X68680000Y-68760000D02*
X68680000Y-67430000D01*
X68680000Y-67430000D02*
X70010000Y-67430000D01*
%TO.C,C10*%
X83359227Y-91522022D02*
X83558038Y-91323211D01*
X82637978Y-90800773D02*
X82836789Y-90601962D01*
%TO.C,U2*%
X81567600Y-71030000D02*
X81567600Y-70380000D01*
X81567600Y-71030000D02*
X81567600Y-71680000D01*
X78447600Y-71030000D02*
X78447600Y-70380000D01*
X78447600Y-71030000D02*
X78447600Y-72705000D01*
%TO.C,C15*%
X81269420Y-98580000D02*
X81550580Y-98580000D01*
X81269420Y-97560000D02*
X81550580Y-97560000D01*
%TO.C,Y1*%
X73937309Y-103457157D02*
X77472843Y-106992691D01*
X76907157Y-100487309D02*
X73937309Y-103457157D01*
%TO.C,R1*%
X73257742Y-73252500D02*
X73732258Y-73252500D01*
X73257742Y-72207500D02*
X73732258Y-72207500D01*
%TO.C,C8*%
X79800580Y-86180000D02*
X79519420Y-86180000D01*
X79800580Y-87200000D02*
X79519420Y-87200000D01*
%TO.C,C11*%
X77491219Y-88280030D02*
X77690030Y-88081219D01*
X76769970Y-87558781D02*
X76968781Y-87359970D01*
%TO.C,C1*%
X74862076Y-105833191D02*
X75060887Y-106032002D01*
X75583325Y-105111942D02*
X75782136Y-105310753D01*
%TO.C,C13*%
X79800580Y-87300000D02*
X79519420Y-87300000D01*
X79800580Y-88320000D02*
X79519420Y-88320000D01*
%TO.C,D2*%
X80635000Y-102450000D02*
X80635000Y-104735000D01*
X82105000Y-104735000D02*
X82105000Y-102450000D01*
X80635000Y-104735000D02*
X82105000Y-104735000D01*
%TO.C,C4*%
X76169420Y-112320000D02*
X76450580Y-112320000D01*
X76169420Y-111300000D02*
X76450580Y-111300000D01*
%TO.C,U1*%
X78935000Y-86211118D02*
X78935000Y-85951118D01*
X78935000Y-80761118D02*
X78935000Y-81021118D01*
X76210000Y-86211118D02*
X78935000Y-86211118D01*
X76210000Y-86211118D02*
X73485000Y-86211118D01*
X76210000Y-80761118D02*
X78935000Y-80761118D01*
X76210000Y-80761118D02*
X73485000Y-80761118D01*
X73485000Y-86211118D02*
X73485000Y-85951118D01*
X73485000Y-81021118D02*
X71810000Y-81021118D01*
X73485000Y-80761118D02*
X73485000Y-81021118D01*
%TD*%
%LPC*%
D13*
%TO.C,R8*%
X73288000Y-114485600D03*
X73288000Y-112835600D03*
%TD*%
%TO.C,R10*%
X83335000Y-86435000D03*
X83335000Y-84785000D03*
%TD*%
D14*
%TO.C,J2*%
X85010000Y-117020000D03*
X85010000Y-114480000D03*
X85010000Y-111940000D03*
X85010000Y-109400000D03*
X85010000Y-106860000D03*
X85010000Y-104320000D03*
X85010000Y-101780000D03*
X85010000Y-99240000D03*
X85010000Y-96700000D03*
X85010000Y-94160000D03*
X85010000Y-91620000D03*
X85010000Y-89080000D03*
X85010000Y-86540000D03*
X85010000Y-84000000D03*
X85010000Y-81460000D03*
X85010000Y-78920000D03*
X85010000Y-76380000D03*
X85010000Y-73840000D03*
X85010000Y-71300000D03*
D15*
X85010000Y-68760000D03*
%TD*%
D16*
%TO.C,C17*%
X75900000Y-71440000D03*
X75900000Y-72990000D03*
%TD*%
D17*
%TO.C,C5*%
X79235000Y-73140000D03*
X80785000Y-73140000D03*
%TD*%
%TO.C,C18*%
X81920000Y-80780000D03*
X83470000Y-80780000D03*
%TD*%
D18*
%TO.C,C7*%
X75710000Y-100930000D03*
X75710000Y-99380000D03*
%TD*%
D19*
%TO.C,CH1*%
X79910000Y-114530000D03*
D20*
X77370000Y-114530000D03*
D19*
X74830000Y-114530000D03*
%TD*%
D13*
%TO.C,R6*%
X82430000Y-72833800D03*
X82430000Y-71183800D03*
%TD*%
D21*
%TO.C,R3*%
X80060000Y-102770000D03*
X78893274Y-101603274D03*
%TD*%
D22*
%TO.C,R5*%
X80895600Y-68923000D03*
X79245600Y-68923000D03*
%TD*%
D17*
%TO.C,C12*%
X72030000Y-111616400D03*
X73580000Y-111616400D03*
%TD*%
D23*
%TO.C,C16*%
X83636016Y-95056016D03*
X82540000Y-93960000D03*
%TD*%
D18*
%TO.C,C14*%
X74690000Y-100145000D03*
X74690000Y-98595000D03*
%TD*%
D24*
%TO.C,U3*%
X81770000Y-74780000D03*
D25*
X75470000Y-77080000D03*
D24*
X81770000Y-77080000D03*
X81770000Y-79380000D03*
%TD*%
D26*
%TO.C,BOOT*%
X73820000Y-75690000D03*
X73820000Y-80340000D03*
X71670000Y-75690000D03*
X71670000Y-80340000D03*
%TD*%
D13*
%TO.C,R11*%
X81370000Y-101110000D03*
X81370000Y-99460000D03*
%TD*%
%TO.C,R9*%
X81860000Y-85735000D03*
X81860000Y-84085000D03*
%TD*%
D27*
%TO.C,U4*%
X77538070Y-93649340D03*
D28*
X78033045Y-89477410D03*
D29*
X78315887Y-89194567D03*
D28*
X78598730Y-88911725D03*
X78315887Y-89760253D03*
D29*
X78598730Y-89477410D03*
D28*
X78881573Y-89194567D03*
X78598730Y-90043095D03*
D29*
X78881573Y-89760253D03*
D28*
X79164416Y-89477410D03*
X78881573Y-90325938D03*
D29*
X79164416Y-90043095D03*
D28*
X79447258Y-89760253D03*
X79164416Y-90608781D03*
D29*
X79447258Y-90325938D03*
D28*
X79730101Y-90043095D03*
X79447258Y-90891624D03*
D29*
X79730101Y-90608781D03*
D28*
X80012944Y-90325938D03*
X79730101Y-91174466D03*
D29*
X80012944Y-90891624D03*
D28*
X80295786Y-90608781D03*
X80012944Y-91457309D03*
D29*
X80295786Y-91174466D03*
D28*
X80578629Y-90891624D03*
X80295786Y-91740152D03*
D29*
X80578629Y-91457309D03*
D28*
X80861472Y-91174466D03*
X80578629Y-92022994D03*
D29*
X80861472Y-91740152D03*
D28*
X81144315Y-91457309D03*
X80861472Y-92305837D03*
D29*
X81144315Y-92022994D03*
D28*
X81427157Y-91740152D03*
X81144315Y-92588680D03*
D29*
X81427157Y-92305837D03*
D28*
X81710000Y-92022994D03*
X81427157Y-92871523D03*
D29*
X81710000Y-92588680D03*
D28*
X81992843Y-92305837D03*
X81710000Y-93154365D03*
D29*
X81992843Y-92871523D03*
D28*
X82275685Y-92588680D03*
D30*
X82275685Y-94710000D03*
D31*
X81992843Y-94427157D03*
D30*
X81710000Y-94144315D03*
X81992843Y-94992843D03*
D31*
X81710000Y-94710000D03*
D30*
X81427157Y-94427157D03*
X81710000Y-95275686D03*
D31*
X81427157Y-94992843D03*
D30*
X81144315Y-94710000D03*
X81427157Y-95558528D03*
D31*
X81144315Y-95275686D03*
D30*
X80861472Y-94992843D03*
X81144315Y-95841371D03*
D31*
X80861472Y-95558528D03*
D30*
X80578629Y-95275686D03*
X80861472Y-96124214D03*
D31*
X80578629Y-95841371D03*
D30*
X80295786Y-95558528D03*
X80578629Y-96407056D03*
D31*
X80295786Y-96124214D03*
D30*
X80012944Y-95841371D03*
X80295786Y-96689899D03*
D31*
X80012944Y-96407056D03*
D30*
X79730101Y-96124214D03*
X80012944Y-96972742D03*
D31*
X79730101Y-96689899D03*
D30*
X79447258Y-96407056D03*
X79730101Y-97255585D03*
D31*
X79447258Y-96972742D03*
D30*
X79164416Y-96689899D03*
X79447258Y-97538427D03*
D31*
X79164416Y-97255585D03*
D30*
X78881573Y-96972742D03*
X79164416Y-97821270D03*
D31*
X78881573Y-97538427D03*
D30*
X78598730Y-97255585D03*
X78881573Y-98104113D03*
D31*
X78598730Y-97821270D03*
D30*
X78315887Y-97538427D03*
X78598730Y-98386955D03*
D31*
X78315887Y-98104113D03*
D30*
X78033045Y-97821270D03*
D32*
X76477410Y-98386955D03*
D33*
X76760253Y-98104113D03*
D32*
X77043095Y-97821270D03*
X76194567Y-98104113D03*
D33*
X76477410Y-97821270D03*
D32*
X76760253Y-97538427D03*
X75911724Y-97821270D03*
D33*
X76194567Y-97538427D03*
D32*
X76477410Y-97255585D03*
X75628882Y-97538427D03*
D33*
X75911724Y-97255585D03*
D32*
X76194567Y-96972742D03*
X75346039Y-97255585D03*
D33*
X75628882Y-96972742D03*
D32*
X75911724Y-96689899D03*
X75063196Y-96972742D03*
D33*
X75346039Y-96689899D03*
D32*
X75628882Y-96407056D03*
X74780354Y-96689899D03*
D33*
X75063196Y-96407056D03*
D32*
X75346039Y-96124214D03*
X74497511Y-96407056D03*
D33*
X74780354Y-96124214D03*
D32*
X75063196Y-95841371D03*
X74214668Y-96124214D03*
D33*
X74497511Y-95841371D03*
D32*
X74780354Y-95558528D03*
X73931825Y-95841371D03*
D33*
X74214668Y-95558528D03*
D32*
X74497511Y-95275686D03*
X73648983Y-95558528D03*
D33*
X73931825Y-95275686D03*
D32*
X74214668Y-94992843D03*
X73366140Y-95275686D03*
D33*
X73648983Y-94992843D03*
D32*
X73931825Y-94710000D03*
X73083297Y-94992843D03*
D33*
X73366140Y-94710000D03*
D32*
X73648983Y-94427157D03*
X72800455Y-94710000D03*
D33*
X73083297Y-94427157D03*
D32*
X73366140Y-94144315D03*
D34*
X73366140Y-93154365D03*
D35*
X73083297Y-92871523D03*
D34*
X72800455Y-92588680D03*
X73648983Y-92871523D03*
D35*
X73366140Y-92588680D03*
D34*
X73083297Y-92305837D03*
X73931825Y-92588680D03*
D35*
X73648983Y-92305837D03*
D34*
X73366140Y-92022994D03*
X74214668Y-92305837D03*
D35*
X73931825Y-92022994D03*
D34*
X73648983Y-91740152D03*
X74497511Y-92022994D03*
D35*
X74214668Y-91740152D03*
D34*
X73931825Y-91457309D03*
X74780354Y-91740152D03*
D35*
X74497511Y-91457309D03*
D34*
X74214668Y-91174466D03*
X75063196Y-91457309D03*
D35*
X74780354Y-91174466D03*
D34*
X74497511Y-90891624D03*
X75346039Y-91174466D03*
D35*
X75063196Y-90891624D03*
D34*
X74780354Y-90608781D03*
X75628882Y-90891624D03*
D35*
X75346039Y-90608781D03*
D34*
X75063196Y-90325938D03*
X75911724Y-90608781D03*
D35*
X75628882Y-90325938D03*
D34*
X75346039Y-90043095D03*
X76194567Y-90325938D03*
D35*
X75911724Y-90043095D03*
D34*
X75628882Y-89760253D03*
X76477410Y-90043095D03*
D35*
X76194567Y-89760253D03*
D34*
X75911724Y-89477410D03*
X76760253Y-89760253D03*
D35*
X76477410Y-89477410D03*
D34*
X76194567Y-89194567D03*
X77043095Y-89477410D03*
D35*
X76760253Y-89194567D03*
D34*
X76477410Y-88911725D03*
%TD*%
D36*
%TO.C,D1*%
X82430000Y-69697500D03*
X82430000Y-68122500D03*
%TD*%
D37*
%TO.C,R7*%
X72170400Y-112835600D03*
X72170400Y-114485600D03*
%TD*%
D38*
%TO.C,C3*%
X71653984Y-89623984D03*
X72750000Y-90720000D03*
%TD*%
D22*
%TO.C,R2*%
X76375000Y-79820000D03*
X74725000Y-79820000D03*
%TD*%
D16*
%TO.C,C9*%
X82585000Y-87685000D03*
X82585000Y-89235000D03*
%TD*%
D39*
%TO.C,R4*%
X74102600Y-68973800D03*
X75752600Y-68973800D03*
%TD*%
D40*
%TO.C,J1*%
X74285000Y-67002500D03*
X75060000Y-67002500D03*
D41*
X75760000Y-67002500D03*
X76260000Y-67002500D03*
X76760000Y-67002500D03*
X77260000Y-67002500D03*
X77760000Y-67002500D03*
X78260000Y-67002500D03*
X78760000Y-67002500D03*
X79260000Y-67002500D03*
D40*
X79960000Y-67002500D03*
X80735000Y-67002500D03*
D42*
X71760000Y-61892500D03*
D43*
X71760000Y-65892500D03*
D42*
X83260000Y-61892500D03*
D43*
X83260000Y-65892500D03*
%TD*%
D44*
%TO.C,RUN*%
X80745000Y-112865000D03*
X80745000Y-108215000D03*
X82895000Y-112865000D03*
X82895000Y-108215000D03*
%TD*%
D45*
%TO.C,C2*%
X78797253Y-106443270D03*
X79893269Y-105347254D03*
%TD*%
D17*
%TO.C,C6*%
X72720000Y-71630000D03*
X74270000Y-71630000D03*
%TD*%
D14*
%TO.C,J8*%
X70010000Y-117020000D03*
X70010000Y-114480000D03*
X70010000Y-111940000D03*
X70010000Y-109400000D03*
X70010000Y-106860000D03*
X70010000Y-104320000D03*
X70010000Y-101780000D03*
X70010000Y-99240000D03*
X70010000Y-96700000D03*
X70010000Y-94160000D03*
X70010000Y-91620000D03*
X70010000Y-89080000D03*
X70010000Y-86540000D03*
X70010000Y-84000000D03*
X70010000Y-81460000D03*
X70010000Y-78920000D03*
X70010000Y-76380000D03*
X70010000Y-73840000D03*
X70010000Y-71300000D03*
D15*
X70010000Y-68760000D03*
%TD*%
D46*
%TO.C,C10*%
X83646016Y-90513984D03*
X82550000Y-91610000D03*
%TD*%
D47*
%TO.C,U2*%
X80007600Y-70092500D03*
X80957600Y-71967500D03*
X79057600Y-71967500D03*
%TD*%
D48*
%TO.C,C15*%
X82185000Y-98070000D03*
X80635000Y-98070000D03*
%TD*%
D49*
%TO.C,Y1*%
X76995546Y-102025266D03*
X78904734Y-103934454D03*
X77384454Y-105454734D03*
X75475266Y-103545546D03*
%TD*%
D22*
%TO.C,R1*%
X74320000Y-72730000D03*
X72670000Y-72730000D03*
%TD*%
D17*
%TO.C,C8*%
X78885000Y-86690000D03*
X80435000Y-86690000D03*
%TD*%
D46*
%TO.C,C11*%
X77778008Y-87271992D03*
X76681992Y-88368008D03*
%TD*%
D23*
%TO.C,C1*%
X75870114Y-106119980D03*
X74774098Y-105023964D03*
%TD*%
D17*
%TO.C,C13*%
X78885000Y-87810000D03*
X80435000Y-87810000D03*
%TD*%
D50*
%TO.C,D2*%
X81370000Y-102462500D03*
X81370000Y-104037500D03*
%TD*%
D48*
%TO.C,C4*%
X77085000Y-111810000D03*
X75535000Y-111810000D03*
%TD*%
D51*
%TO.C,U1*%
X79310000Y-81581118D03*
X79310000Y-82851118D03*
X79310000Y-84121118D03*
X79310000Y-85391118D03*
X73110000Y-85391118D03*
X73110000Y-84121118D03*
X73110000Y-82851118D03*
X73110000Y-81581118D03*
%TD*%
%LPD*%
M02*
